<?xml version="1.0" encoding="UTF-8"?>
<svg version="1.1" xmlns="http://www.w3.org/2000/svg" width="218" height="220">
<path d="M0 0 C0 0.66 0 1.32 0 2 C0.66 2 1.32 2 2 2 C2 2.66 2 3.32 2 4 C2.556875 4.2475 3.11375 4.495 3.6875 4.75 C10.4761346 8.41953222 13.32573516 13.44642999 17 20 C17.45761719 20.74765625 17.91523438 21.4953125 18.38671875 22.265625 C25.98887133 34.95870859 27.41807601 50.80357702 24.19140625 65.19921875 C20.71167879 76.72205328 14.53874273 87.78734852 4.98046875 95.28515625 C1.80835041 98.03182282 -0.60511961 101.34142759 -3.140625 104.66796875 C-5 107 -5 107 -7.1328125 109.08203125 C-12.55051116 114.64707318 -12.96160667 123.67016472 -14 131 C-12.35 131.33 -10.7 131.66 -9 132 C-9.33 132.99 -9.66 133.98 -10 135 C-26.83 135 -43.66 135 -61 135 C-61.33 134.01 -61.66 133.02 -62 132 C-60.35 131.67 -58.7 131.34 -57 131 C-59.06869852 117.00761964 -59.06869852 117.00761964 -66.65625 105.390625 C-68 104 -68 104 -68 102 C-68.639375 101.731875 -69.27875 101.46375 -69.9375 101.1875 C-72 100 -72 100 -73 97 C-73.66 97 -74.32 97 -75 97 C-75 96.34 -75 95.68 -75 95 C-76.485 94.505 -76.485 94.505 -78 94 C-78 93.34 -78 92.68 -78 92 C-78.598125 91.7421875 -79.19625 91.484375 -79.8125 91.21875 C-86.70594874 87.37811428 -89.49876344 79.03472781 -92 72 C-92.56144011 70.54125829 -93.12385443 69.08289095 -93.6875 67.625 C-98.76533774 53.60049577 -96.67348173 38.48198421 -91 25 C-84.38159975 11.34500388 -72.97590091 -0.02017556 -59 -6 C-38.32510794 -13.05173193 -19.18685271 -10.71891213 0 0 Z M-63 2 C-63.83402344 2.49371094 -64.66804688 2.98742187 -65.52734375 3.49609375 C-77.97789829 11.49591077 -85.96989223 23.93677874 -90 38 C-90.56990655 41.91483746 -90.6684449 45.73530147 -90.625 49.6875 C-90.61734619 50.73043213 -90.60969238 51.77336426 -90.60180664 52.84790039 C-90.24345172 65.44859164 -86.6302037 75.79777211 -78.515625 85.59375 C-77.10023324 87.22672039 -77.10023324 87.22672039 -75 87 C-74.79375 87.721875 -74.5875 88.44375 -74.375 89.1875 C-72.52471012 92.97218384 -70.39759562 94.52258653 -67 97 C-66.34 97 -65.68 97 -65 97 C-65 97.66 -65 98.32 -65 99 C-64.34 99 -63.68 99 -63 99 C-62.773125 99.680625 -62.54625 100.36125 -62.3125 101.0625 C-61.20228488 103.54726718 -60.19531523 105.1401273 -58.5625 107.25 C-54.16304587 113.24571624 -52.75279756 119.837233 -52.2109375 127.15234375 C-52.09633857 129.09305135 -52.09633857 129.09305135 -51 131 C-46.60343827 131.02465504 -42.2069128 131.04283842 -37.81030273 131.05493164 C-36.31355082 131.05997121 -34.81680384 131.06680287 -33.32006836 131.07543945 C-31.17300193 131.08752159 -29.02600038 131.09323191 -26.87890625 131.09765625 C-25.5854126 131.10289307 -24.29191895 131.10812988 -22.95922852 131.11352539 C-20.11347596 131.33996932 -20.11347596 131.33996932 -19 130 C-18.77645393 128.10590022 -18.57180049 126.2095652 -18.375 124.3125 C-16.58941168 112.36481342 -11.1091525 102.86875726 -2 95 C-0.31237149 93.3545622 1.3540349 91.68711423 3 90 C3.61746094 89.39027344 4.23492187 88.78054687 4.87109375 88.15234375 C16.08504644 76.4720263 20.02000229 61.83781148 20 46 C19.2873338 33.85300056 13.76919267 20.54318255 5 12 C4.34 12 3.68 12 3 12 C2.505 10.515 2.505 10.515 2 9 C-16.06014007 -6.39672547 -42.2053144 -10.51686533 -63 2 Z " fill="#A1C5D1" transform="translate(142,45)"/>
<path d="M0 0 C1.13050781 -0.03738281 2.26101562 -0.07476562 3.42578125 -0.11328125 C7.34887449 0.39883511 8.93099882 1.52587313 11.6875 4.3125 C12.80191496 7.65574488 12.86013735 10.26025335 12.92456055 13.78417969 C12.93767273 14.43661652 12.95078491 15.08905334 12.96429443 15.76126099 C13.00608054 17.91890619 13.0406084 20.07658789 13.07421875 22.234375 C13.0998874 23.73789664 13.12567134 25.24141631 13.15156555 26.74493408 C13.20453626 29.89892142 13.25345162 33.05294366 13.30004883 36.20703125 C13.36027482 40.23649473 13.43453797 44.26556412 13.51242352 48.2947197 C13.5702212 51.40198018 13.61842438 54.50933699 13.664011 57.6167984 C13.68732053 59.10151156 13.71404495 60.58617537 13.74432945 62.07076263 C13.78580863 64.1549084 13.81379396 66.23884019 13.83862305 68.32324219 C13.86740791 70.09837189 13.86740791 70.09837189 13.89677429 71.90936279 C13.58314936 77.00940961 12.52628311 81.05432533 9.6875 85.3125 C5.13999307 87.85910388 1.79084113 88.86683016 -3.3828125 87.9609375 C-6.82511511 86.80421233 -8.78260119 84.90410366 -11.3125 82.3125 C-11.6425 81.3225 -11.9725 80.3325 -12.3125 79.3125 C-14.79530777 78.39145841 -17.28899647 77.85147531 -19.8671875 77.25390625 C-22.86715285 76.09896751 -23.80123499 75.13385514 -25.3125 72.3125 C-25.6484375 69.65625 -25.6484375 69.65625 -25.6875 66.8125 C-25.88253879 62.30125078 -25.88253879 62.30125078 -28.75 58.875 C-29.595625 58.359375 -30.44125 57.84375 -31.3125 57.3125 C-33.59848827 54.04680247 -33.63951094 51.23663125 -33.3125 47.3125 C-32.94125 46.61125 -32.57 45.91 -32.1875 45.1875 C-31.754375 44.259375 -31.754375 44.259375 -31.3125 43.3125 C-31.94290043 41.96164193 -32.61501417 40.62997324 -33.3125 39.3125 C-33.83305293 35.32159419 -33.48246586 33.61726637 -31.5 30.0625 C-29.3125 27.3125 -29.3125 27.3125 -26.3125 25.3125 C-25.87841909 22.78587575 -25.87841909 22.78587575 -25.875 19.9375 C-25.49267795 14.61279659 -25.49267795 14.61279659 -23.8125 11.8125 C-21.42013244 10.37707947 -19.46903933 9.71523684 -16.8125 8.9375 C-13.06459295 7.82974422 -12.42564201 7.45755386 -9.875 4.1875 C-9.359375 3.23875 -8.84375 2.29 -8.3125 1.3125 C-5.51518195 -0.08615903 -3.11965441 0.06712733 0 0 Z M-5.8125 7 C-7.55883224 9.69226221 -7.66232212 11.16410094 -7.3125 14.3125 C-7.91578125 14.28929688 -8.5190625 14.26609375 -9.140625 14.2421875 C-9.93984375 14.22414063 -10.7390625 14.20609375 -11.5625 14.1875 C-12.74585938 14.15269531 -12.74585938 14.15269531 -13.953125 14.1171875 C-16.51981941 14.3296622 -18.1041067 15.02595895 -20.3125 16.3125 C-20.3125 18.9525 -20.3125 21.5925 -20.3125 24.3125 C-16.11216963 26.50812724 -12.3942332 27.84411003 -7.8125 28.875 C-4.04553149 31.04100689 -2.94017505 34.40244262 -1.3125 38.3125 C-5.62642226 37.8331753 -7.47819547 36.5667015 -10.3125 33.3125 C-10.6425 36.2825 -10.9725 39.2525 -11.3125 42.3125 C-12.6325 41.9825 -13.9525 41.6525 -15.3125 41.3125 C-15.24739583 39.32682292 -15.18229167 37.34114583 -15.1171875 35.35546875 C-15.17995538 32.99890281 -15.17995538 32.99890281 -17.3125 30.3125 C-20.89607241 30.06234127 -20.89607241 30.06234127 -24.3125 30.3125 C-24.6425 31.3025 -24.9725 32.2925 -25.3125 33.3125 C-25.9725 33.3125 -26.6325 33.3125 -27.3125 33.3125 C-26.84449289 37.36856165 -26.43296792 40.77838679 -24.3125 44.3125 C-24.828125 44.84875 -25.34375 45.385 -25.875 45.9375 C-27.58629089 48.28665641 -27.58629089 48.28665641 -27.25 51.375 C-26.53318547 54.34402944 -26.53318547 54.34402944 -24.5625 56.1875 C-21.94945229 57.49402386 -20.19716476 57.55288873 -17.3125 57.3125 C-17.6875 59.75 -17.6875 59.75 -18.3125 62.3125 C-19.3025 62.8075 -19.3025 62.8075 -20.3125 63.3125 C-20.64630814 66.68686186 -20.64630814 66.68686186 -20.3125 70.3125 C-18.67799876 72.37195016 -18.67799876 72.37195016 -16.3125 73.3125 C-14.9925 73.3125 -13.6725 73.3125 -12.3125 73.3125 C-11.09279695 68.31171748 -11.80929567 65.17580813 -13.3125 60.3125 C-13.4375 57.375 -13.4375 57.375 -13.3125 55.3125 C-12.3225 55.6425 -11.3325 55.9725 -10.3125 56.3125 C-9.125 59.875 -9.125 59.875 -8.3125 63.3125 C-5.0125 62.6525 -1.7125 61.9925 1.6875 61.3125 C1.6875 62.6325 1.6875 63.9525 1.6875 65.3125 C0.8521875 65.4053125 0.8521875 65.4053125 0 65.5 C-3.41782787 66.70085844 -5.06657292 68.50509115 -7.3125 71.3125 C-8.14583333 74.3125 -8.14583333 74.3125 -7.3125 77.3125 C-5.39583333 80.39583333 -5.39583333 80.39583333 -2.3125 82.3125 C1.32575863 82.56661568 1.32575863 82.56661568 4.6875 81.3125 C6.97852402 79.02973728 7.64049874 77.70454777 8.02807617 74.47167969 C8.01236572 73.40336914 7.99665527 72.33505859 7.98046875 71.234375 C7.97080078 70.07421875 7.96113281 68.9140625 7.95117188 67.71875 C7.92603516 66.5121875 7.90089844 65.305625 7.875 64.0625 C7.86146484 62.84046875 7.84792969 61.6184375 7.83398438 60.359375 C7.7986398 57.34330502 7.7492956 54.32812513 7.6875 51.3125 C6.0375 50.9825 4.3875 50.6525 2.6875 50.3125 C2.31625 51.281875 1.945 52.25125 1.5625 53.25 C-0.3125 56.3125 -0.3125 56.3125 -3.5 57.1875 C-4.428125 57.22875 -5.35625 57.27 -6.3125 57.3125 C-6.3125 55.9925 -6.3125 54.6725 -6.3125 53.3125 C-3.8125 51.5625 -3.8125 51.5625 -1.3125 50.3125 C-3.31282373 49.31233813 -5.14375748 48.81853992 -7.3125 48.3125 C-7.3125 47.6525 -7.3125 46.9925 -7.3125 46.3125 C-2.41181037 44.67893679 2.54488476 45.25720306 7.6875 45.3125 C7.6875 38.7125 7.6875 32.1125 7.6875 25.3125 C5.3671875 25.1578125 5.3671875 25.1578125 3 25 C-1.11427135 24.58041425 -4.10031257 24.11021163 -7.3125 21.3125 C-8.125 19.125 -8.125 19.125 -8.3125 17.3125 C-6.0025 17.6425 -3.6925 17.9725 -1.3125 18.3125 C-1.6425 16.3325 -1.9725 14.3525 -2.3125 12.3125 C-0.5 12.375 -0.5 12.375 1.6875 13.3125 C3.4375 16.875 3.4375 16.875 4.6875 20.3125 C5.6775 20.3125 6.6675 20.3125 7.6875 20.3125 C7.76892927 18.5632786 7.82688541 16.81295458 7.875 15.0625 C7.90980469 14.08796875 7.94460937 13.1134375 7.98046875 12.109375 C7.64134447 8.87186858 7.02013945 7.56108037 4.6875 5.3125 C0.19562785 4.74210354 -2.05314132 4.46243289 -5.8125 7 Z " fill="#9EC2CE" transform="translate(92.3125,51.6875)"/>
<path d="M0 0 C2.69560781 1.39335593 3.33958181 2.35563028 5 5 C5 5.99 5 6.98 5 8 C6.051875 8.103125 7.10375 8.20625 8.1875 8.3125 C13.01759004 9.18349984 15.67608214 10.4021681 18.8125 14.1875 C20.00524954 17.01243311 20.05581245 18.11470918 19.875 21.0625 C19.54710901 25.09415651 19.54710901 25.09415651 22.375 27.3125 C23.24125 27.869375 24.1075 28.42625 25 29 C27.93985856 33.40978784 27.42166809 37.84480756 26.4375 42.875 C26.293125 43.57625 26.14875 44.2775 26 45 C26.33 45.66 26.66 46.32 27 47 C27.67506516 52.85056473 27.67506516 52.85056473 25.98828125 55.72265625 C23.88145095 58.29767106 21.76904897 60.15396735 19 62 C19.33 62.33 19.66 62.66 20 63 C20.14128008 67.88425431 19.68209037 71.16050417 16.5625 75 C12.48703637 78.18084966 10.14407988 78.09526074 5 78 C4.938125 78.7425 4.87625 79.485 4.8125 80.25 C3.69546359 84.03073862 2.39762089 85.01805448 -1 87 C-4.10292708 88.02839869 -6.7475998 88.42070848 -10 88 C-14.26070348 85.83742445 -17.46705921 83.59882237 -19 79 C-19.10501186 76.71157658 -19.1486925 74.42019232 -19.16113281 72.12939453 C-19.16609772 71.43473083 -19.17106262 70.74006714 -19.17617798 70.02435303 C-19.19077829 67.72716276 -19.19759784 65.43004154 -19.203125 63.1328125 C-19.20887799 61.53482054 -19.21463571 59.9368286 -19.22039795 58.33883667 C-19.23090172 54.98809488 -19.23674854 51.63737703 -19.24023438 48.28662109 C-19.24571933 43.99698284 -19.2697498 39.70766196 -19.29820633 35.41812325 C-19.31684645 32.11696451 -19.32203902 28.81588205 -19.32357025 25.51467514 C-19.32659397 23.93345275 -19.33461304 22.35223161 -19.34775543 20.77106094 C-19.36484597 18.55692762 -19.36292884 16.34356739 -19.35644531 14.12939453 C-19.36009094 12.87047394 -19.36373657 11.61155334 -19.36749268 10.31448364 C-18.96741022 6.70606683 -18.18963492 4.86575482 -16 2 C-11.12722488 -1.24851675 -5.69167684 -0.71235004 0 0 Z M-13 7 C-14.00496852 10.01490557 -14.10335303 12.04181692 -14.0625 15.1875 C-14.05347656 16.08855469 -14.04445313 16.98960938 -14.03515625 17.91796875 C-14.02355469 18.60503906 -14.01195313 19.29210937 -14 20 C-13.01 20 -12.02 20 -11 20 C-10.608125 18.865625 -10.21625 17.73125 -9.8125 16.5625 C-8 13 -8 13 -5.3125 12.0625 C-4.549375 12.041875 -3.78625 12.02125 -3 12 C-3.350625 12.598125 -3.70125 13.19625 -4.0625 13.8125 C-5.33304698 16.10813214 -5.33304698 16.10813214 -4 19 C-3.67 18.67 -3.34 18.34 -3 18 C-1.33382885 17.95936168 0.33388095 17.957279 2 18 C2 19.32 2 20.64 2 22 C-3.32807302 24.10318672 -8.33468819 24.54065039 -14 25 C-14 31.6 -14 38.2 -14 45 C-12.081875 44.979375 -10.16375 44.95875 -8.1875 44.9375 C-4.73663415 44.90039392 -2.28519475 44.90493508 1 46 C1 47.32 1 48.64 1 50 C-0.32 50 -1.64 50 -3 50 C-3 50.66 -3 51.32 -3 52 C-1.68 52 -0.36 52 1 52 C0.505 54.475 0.505 54.475 0 57 C-3.66464055 56.5047783 -5.70832354 55.9791794 -8 53 C-8.495 51.515 -8.495 51.515 -9 50 C-11.75641416 50.49756092 -11.75641416 50.49756092 -14 52 C-14.28155072 55.90928905 -14.23186012 59.83178585 -14.25 63.75 C-14.270625 64.84828125 -14.29125 65.9465625 -14.3125 67.078125 C-14.31765625 68.1403125 -14.3228125 69.2025 -14.328125 70.296875 C-14.3374707 71.26979492 -14.34681641 72.24271484 -14.35644531 73.24511719 C-13.89931778 76.77814943 -12.53543565 79.46456435 -10 82 C-6.21700615 82.35688621 -3.84587193 82.52053657 -0.5625 80.5 C1.63229668 76.98832531 1.82052045 74.03629758 1 70 C-1.04625315 67.044301 -2.28984065 66.19367982 -5.75 65.25 C-6.4925 65.1675 -7.235 65.085 -8 65 C-7.67 64.01 -7.34 63.02 -7 62 C-4.03 62.33 -1.06 62.66 2 63 C2.33 60.36 2.66 57.72 3 55 C4.32 55 5.64 55 7 55 C6.85816304 56.75032844 6.71136571 58.50025534 6.5625 60.25 C6.48128906 61.22453125 6.40007812 62.1990625 6.31640625 63.203125 C6 66 6 66 5.40234375 68.171875 C4.78805938 70.21875794 4.78805938 70.21875794 6 73 C10.37499134 72.62231709 10.37499134 72.62231709 13.9375 70.25 C15.29415549 67.3770825 15.04086843 65.96247168 14 63 C13.34 62.67 12.68 62.34 12 62 C12 60.68 12 59.36 12 58 C13.11375 57.525625 14.2275 57.05125 15.375 56.5625 C17.26710994 55.74693537 19.15712709 54.92143645 21 54 C21.16677282 50.58343976 21.16677282 50.58343976 21 47 C20.34 46.34 19.68 45.68 19 45 C19 43.68 19 42.36 19 41 C19.66 40.67 20.32 40.34 21 40 C21.3849808 35.34048964 21.3849808 35.34048964 19.875 31.0625 C17.11019567 29.49577755 15.11811483 29.61023565 12 30 C9.96117905 30.87129307 9.96117905 30.87129307 9 33 C8.75868793 35.71878263 8.8652071 38.2592111 9 41 C7.68 40.67 6.36 40.34 5 40 C4.67 37.69 4.34 35.38 4 33 C3.2575 33.825 2.515 34.65 1.75 35.5 C-1 38 -1 38 -5 38 C-3.92718936 35.13472934 -2.75456923 32.51540013 -1 30 C2.25 28.75 2.25 28.75 6 28 C8.85652171 26.93769922 11.50522865 25.76208365 14 24 C15.28792067 21.13795407 15.27790549 19.88003404 14.34375 16.921875 C13.11168901 14.7456325 13.11168901 14.7456325 10.3984375 14.171875 C9.40070313 14.03265625 8.40296875 13.8934375 7.375 13.75 C6.37210938 13.60046875 5.36921875 13.4509375 4.3359375 13.296875 C3.56507813 13.19890625 2.79421875 13.1009375 2 13 C1.71125 12.05125 1.4225 11.1025 1.125 10.125 C0.23174891 6.94788422 0.23174891 6.94788422 -2 5 C-6.52120973 3.36734093 -9.03109912 4.4743358 -13 7 Z " fill="#9AC0CD" transform="translate(127,52)"/>
<path d="M0 0 C0.33 0 0.66 0 1 0 C1.33 21.45 1.66 42.9 2 65 C2.33 65 2.66 65 3 65 C3 58.07 3 51.14 3 44 C3.99 43.505 3.99 43.505 5 43 C5.01458252 43.73114014 5.02916504 44.46228027 5.04418945 45.21557617 C5.1188291 48.54007371 5.21543801 51.86358467 5.3125 55.1875 C5.33505859 56.33798828 5.35761719 57.48847656 5.38085938 58.67382812 C5.41630859 59.78564453 5.45175781 60.89746094 5.48828125 62.04296875 C5.51446533 63.06414795 5.54064941 64.08532715 5.56762695 65.13745117 C6.06669774 68.44157598 6.94645807 70.37162089 9 73 C13.60888864 73.6696586 13.60888864 73.6696586 17.70703125 71.79296875 C19.45563309 69.36817042 19.30267932 67.76876923 19.1875 64.8125 C19.16042969 63.91144531 19.13335937 63.01039062 19.10546875 62.08203125 C19.07066406 61.39496094 19.03585938 60.70789063 19 60 C16.34771188 58.92474806 13.71631546 57.90543849 11 57 C11.33 55.68 11.66 54.36 12 53 C14.64 53.33 17.28 53.66 20 54 C20.66 51.69 21.32 49.38 22 47 C23.32 47 24.64 47 26 47 C26.02715383 48.74991334 26.04646551 50.49994945 26.0625 52.25 C26.07410156 53.22453125 26.08570313 54.1990625 26.09765625 55.203125 C26.01133607 57.67533507 25.64222327 59.63338197 25 62 C25 62.99 25 63.98 25 65 C28.70992273 63.87773692 28.70992273 63.87773692 32 62 C33.0615942 58.41136476 33.0615942 58.41136476 33 55 C32.01 54.67 31.02 54.34 30 54 C30.33 52.35 30.66 50.7 31 49 C33.97 48.01 36.94 47.02 40 46 C39.67039784 40.98464948 39.67039784 40.98464948 37 37 C37.375 34.375 37.375 34.375 38 32 C38.66 32 39.32 32 40 32 C40 30.02 40 28.04 40 26 C41.32 26 42.64 26 44 26 C44.66 25.67 45.32 25.34 46 25 C46.08214133 29.18920767 45.81876036 32.90619819 45 37 C45.33 37.66 45.66 38.32 46 39 C46.67506516 44.85056473 46.67506516 44.85056473 44.98828125 47.72265625 C42.88145095 50.29767106 40.76904897 52.15396735 38 54 C38.33 54.33 38.66 54.66 39 55 C39.14128008 59.88425431 38.68209037 63.16050417 35.5625 67 C31.48703637 70.18084966 29.14407988 70.09526074 24 70 C23.938125 70.7425 23.87625 71.485 23.8125 72.25 C22.69546359 76.03073862 21.39762089 77.01805448 18 79 C14.89707292 80.02839869 12.2524002 80.42070848 9 80 C4.73929652 77.83742445 1.53294079 75.59882237 0 71 C-0.08989374 68.71540326 -0.11757205 66.42820674 -0.11352539 64.1418457 C-0.11367142 63.44890411 -0.11381744 62.75596252 -0.1139679 62.04202271 C-0.11327163 59.75324363 -0.1054926 57.4645461 -0.09765625 55.17578125 C-0.09579106 53.58823186 -0.09436763 52.00068189 -0.09336853 50.41313171 C-0.08955134 46.2357728 -0.07972786 42.05844869 -0.06866455 37.88110352 C-0.05843328 33.61800609 -0.05386723 29.35490304 -0.04882812 25.09179688 C-0.03810489 16.72784862 -0.02103803 8.36392864 0 0 Z " fill="#9BC0CD" transform="translate(108,60)"/>
<path d="M0 0 C1.13050781 -0.03738281 2.26101562 -0.07476562 3.42578125 -0.11328125 C7.34887449 0.39883511 8.93099882 1.52587313 11.6875 4.3125 C12.64737611 7.19212834 12.80903814 8.97877441 12.80102539 11.9675293 C12.80094986 12.90827805 12.80087433 13.84902679 12.80079651 14.81828308 C12.79563522 15.83086685 12.79047394 16.84345062 12.78515625 17.88671875 C12.7837413 18.92568802 12.78232635 19.96465729 12.78086853 21.03511047 C12.77526656 24.35676948 12.76271372 27.67836133 12.75 31 C12.74498525 33.25065007 12.7404223 35.50130119 12.73632812 37.75195312 C12.72529649 43.27215837 12.70855643 48.79232439 12.6875 54.3125 C12.3575 54.3125 12.0275 54.3125 11.6875 54.3125 C11.1925 45.4025 11.1925 45.4025 10.6875 36.3125 C10.5225 38.065625 10.3575 39.81875 10.1875 41.625 C10.04828125 43.10419922 10.04828125 43.10419922 9.90625 44.61328125 C9.64711143 47.35952139 9.64711143 47.35952139 9.6875 50.3125 C9.62020629 52.37909701 9.54635509 54.44548326 9.46875 56.51171875 C9.42363281 57.72021484 9.37851563 58.92871094 9.33203125 60.17382812 C9.28433594 61.43646484 9.23664063 62.69910156 9.1875 64 C9.13980469 65.27423828 9.09210938 66.54847656 9.04296875 67.86132812 C8.92497588 71.01173772 8.80646558 74.16212701 8.6875 77.3125 C8.3575 77.3125 8.0275 77.3125 7.6875 77.3125 C7.6875 68.7325 7.6875 60.1525 7.6875 51.3125 C6.0375 51.3125 4.3875 51.3125 2.6875 51.3125 C2.419375 52.09625 2.15125 52.88 1.875 53.6875 C0.6875 56.3125 0.6875 56.3125 -2.3125 58.3125 C-5 57.9375 -5 57.9375 -7.3125 57.3125 C-7.3125 55.9925 -7.3125 54.6725 -7.3125 53.3125 C-5.3125 51.5625 -5.3125 51.5625 -3.3125 50.3125 C-4.6325 49.9825 -5.9525 49.6525 -7.3125 49.3125 C-7.3125 47.9925 -7.3125 46.6725 -7.3125 45.3125 C-2.16880944 43.59793648 2.52510714 44.02190179 7.6875 45.3125 C7.6875 38.7125 7.6875 32.1125 7.6875 25.3125 C4.3875 25.3125 1.0875 25.3125 -2.3125 25.3125 C-5.9375 23.5625 -5.9375 23.5625 -8.3125 21.3125 C-8.3125 19.9925 -8.3125 18.6725 -8.3125 17.3125 C-6.0025 17.6425 -3.6925 17.9725 -1.3125 18.3125 C-1.6425 16.3325 -1.9725 14.3525 -2.3125 12.3125 C0.1625 12.8075 0.1625 12.8075 2.6875 13.3125 C3.3475 15.6225 4.0075 17.9325 4.6875 20.3125 C5.6775 20.3125 6.6675 20.3125 7.6875 20.3125 C7.57320603 18.54094346 7.44566963 16.77023771 7.3125 15 C7.20808594 13.52080078 7.20808594 13.52080078 7.1015625 12.01171875 C6.84884528 9.09721567 6.84884528 9.09721567 4.6875 6.3125 C2.25056689 5.94833953 2.25056689 5.94833953 -0.4375 6.125 C-1.34757812 6.15207031 -2.25765625 6.17914063 -3.1953125 6.20703125 C-3.89398438 6.24183594 -4.59265625 6.27664062 -5.3125 6.3125 C-5.9725 8.9525 -6.6325 11.5925 -7.3125 14.3125 C-11.2725 14.9725 -15.2325 15.6325 -19.3125 16.3125 C-19.6425 18.2925 -19.9725 20.2725 -20.3125 22.3125 C-20.6425 22.3125 -20.9725 22.3125 -21.3125 22.3125 C-21.3125 19.6725 -21.3125 17.0325 -21.3125 14.3125 C-21.9725 14.3125 -22.6325 14.3125 -23.3125 14.3125 C-23.9725 15.6325 -24.6325 16.9525 -25.3125 18.3125 C-24.80735922 14.57445823 -24.24967511 12.70722385 -21.3125 10.3125 C-19.19140625 9.57421875 -19.19140625 9.57421875 -16.875 9 C-12.22959643 7.5897882 -10.65349876 5.61993773 -8.3125 1.3125 C-5.51518195 -0.08615903 -3.11965441 0.06712733 0 0 Z " fill="#9DC6D3" transform="translate(92.3125,51.6875)"/>
<path d="M0 0 C16.83 0 33.66 0 51 0 C51 1.65 51 3.3 51 5 C50 6 50 6 46.4375 6.0625 C45.303125 6.041875 44.16875 6.02125 43 6 C43.12375 6.680625 43.2475 7.36125 43.375 8.0625 C42.81197925 12.4728292 40.2188958 15.05341859 37 18 C31.55744642 21.90049673 26.49169003 21.8840823 20 21 C15.25559305 19.27545789 12.12616883 16.66988028 9.5 12.375 C8 9 8 9 8 6 C5.69 6 3.38 6 1 6 C-0.0625 4.125 -0.0625 4.125 -1 2 C-0.67 1.34 -0.34 0.68 0 0 Z M13 6 C14.16225681 10.64902723 16.01839861 12.59314433 20 15 C24.24169228 16.23394684 26.45360817 16.16669581 30.6875 14.875 C34.11733641 12.93358316 35.8859632 11.29789741 38 8 C38 7.34 38 6.68 38 6 C29.75 6 21.5 6 13 6 Z " fill="#9CC0CB" transform="translate(81,189)"/>
<path d="M0 0 C1.32 0.33 2.64 0.66 4 1 C4.33 4.63 4.66 8.26 5 12 C5.99 12.33 6.98 12.66 8 13 C8.309375 11.865625 8.61875 10.73125 8.9375 9.5625 C10 6 10 6 11 5 C12.66617115 4.95936168 14.33388095 4.957279 16 5 C15.67 6.98 15.34 8.96 15 11 C15.33 10.67 15.66 10.34 16 10 C17.66617115 9.95936168 19.33388095 9.957279 21 10 C21.33 10.99 21.66 11.98 22 13 C19.70572021 15.52370777 18.23475448 16.38262276 15 18 C11.7 18 8.4 18 5 18 C5 24.6 5 31.2 5 38 C6.98 37.505 6.98 37.505 9 37 C13.38718005 36.63154543 17.21101406 36.47400937 21 39 C20.67 40.32 20.34 41.64 20 43 C18.68 43 17.36 43 16 43 C16 43.66 16 44.32 16 45 C17.32 45 18.64 45 20 45 C20.625 46.875 20.625 46.875 21 49 C20.34 49.66 19.68 50.32 19 51 C15.73908537 50.82837291 14.23736046 50.19245443 11.6875 48.125 C10 46 10 46 10 43 C8.02 43.66 6.04 44.32 4 45 C4.01047363 45.64549805 4.02094727 46.29099609 4.03173828 46.95605469 C4.07337272 49.88733002 4.09934975 52.81854304 4.125 55.75 C4.15013672 57.27367188 4.15013672 57.27367188 4.17578125 58.828125 C4.18222656 59.8078125 4.18867187 60.7875 4.1953125 61.796875 C4.20578613 62.69760742 4.21625977 63.59833984 4.22705078 64.52636719 C3.98721676 67.13926856 3.32312064 68.75664666 2 71 C1.08425202 67.07912324 0.8485129 63.39603522 0.79467773 59.3737793 C0.78477814 58.72931351 0.77487854 58.08484772 0.76467896 57.42085266 C0.73326613 55.30534451 0.70838721 53.18981395 0.68359375 51.07421875 C0.66300672 49.60162292 0.6420098 48.12903276 0.62062073 46.65644836 C0.56558057 42.79154067 0.51609214 38.92658126 0.46777344 35.06158447 C0.41742608 31.11327543 0.36180928 27.16504097 0.30664062 23.21679688 C0.19928011 15.47792785 0.09778662 7.73899655 0 0 Z " fill="#A1CAD9" transform="translate(108,59)"/>
<path d="M0 0 C16.83 0 33.66 0 51 0 C51 1.65 51 3.3 51 5 C50 6 50 6 46.4375 6.0625 C45.303125 6.041875 44.16875 6.02125 43 6 C43.12375 6.680625 43.2475 7.36125 43.375 8.0625 C42.81197925 12.4728292 40.2188958 15.05341859 37 18 C33.11379737 20.85557119 30.47656794 21.34538136 25.6875 21.1875 C24.08455078 21.14689453 24.08455078 21.14689453 22.44921875 21.10546875 C21.64097656 21.07066406 20.83273438 21.03585938 20 21 C20 20.67 20 20.34 20 20 C22.97 19.67 25.94 19.34 29 19 C28.67 17.68 28.34 16.36 28 15 C28.9075 14.62875 29.815 14.2575 30.75 13.875 C34.69414534 11.91972862 34.69414534 11.91972862 38 6 C31.73 6 25.46 6 19 6 C19 5.67 19 5.34 19 5 C22.72908769 4.83153467 26.45828159 4.66554419 30.1875 4.5 C31.24259766 4.45230469 32.29769531 4.40460938 33.38476562 4.35546875 C34.91713867 4.28779297 34.91713867 4.28779297 36.48046875 4.21875 C37.41785889 4.17685547 38.35524902 4.13496094 39.32104492 4.09179688 C41.88326823 4.00399992 44.43652368 3.98373687 47 4 C47 3.34 47 2.68 47 2 C31.82 2 16.64 2 1 2 C0.67 2.99 0.34 3.98 0 5 C-0.33 4.01 -0.66 3.02 -1 2 C-0.67 1.34 -0.34 0.68 0 0 Z " fill="#93B7C1" transform="translate(81,189)"/>
<path d="M0 0 C0.86825912 0.00222061 1.73651825 0.00444122 2.63108826 0.00672913 C3.61202957 0.00680466 4.59297089 0.00688019 5.6036377 0.00695801 C6.6702916 0.01211929 7.7369455 0.01728058 8.83592224 0.02259827 C9.92211349 0.02401321 11.00830475 0.02542816 12.12741089 0.02688599 C15.61230674 0.03250403 19.09713941 0.04505959 22.58201599 0.05775452 C24.93813486 0.06276719 27.29425473 0.0673305 29.65037537 0.07142639 C35.44011063 0.08247933 41.2298088 0.09923501 47.01951599 0.12025452 C47.51451599 2.59525452 47.51451599 2.59525452 48.01951599 5.12025452 C31.18951599 5.12025452 14.35951599 5.12025452 -2.98048401 5.12025452 C-2.98048401 0.18097428 -2.98048401 0.18097428 0 0 Z " fill="#B0D5E4" transform="translate(83.98048400878906,181.87974548339844)"/>
<path d="M0 0 C2.56035378 3.90395107 2.48195355 8.16047795 2.703125 12.67578125 C2.74943054 13.5191655 2.79573608 14.36254974 2.84344482 15.23149109 C2.93854581 17.01403744 3.02903545 18.79683498 3.11523438 20.57983398 C3.24904869 23.29321006 3.40483514 26.00471489 3.5625 28.71679688 C3.65238096 30.45305619 3.74096466 32.18938324 3.828125 33.92578125 C3.87592102 34.73018143 3.92371704 35.5345816 3.97296143 36.36335754 C4.2469684 42.59578933 3.5446691 47.68299635 0 53 C-4.59115976 55.78252107 -8.94933015 54.81426921 -14 54 C-14 53.34 -14 52.68 -14 52 C-10.535 51.505 -10.535 51.505 -7 51 C-7 50.34 -7 49.68 -7 49 C-5.125 46.875 -5.125 46.875 -3 45 C-2.34 45 -1.68 45 -1 45 C-0.97108051 40.70834738 -0.95322882 36.41671964 -0.9375 32.125 C-0.92912109 30.90167969 -0.92074219 29.67835937 -0.91210938 28.41796875 C-0.90888672 27.25136719 -0.90566406 26.08476563 -0.90234375 24.8828125 C-0.89710693 23.80402832 -0.89187012 22.72524414 -0.88647461 21.61376953 C-0.82116894 19.01767814 -0.82116894 19.01767814 -2 17 C-1.67 16.34 -1.34 15.68 -1 15 C-0.76827173 12.45384991 -0.58105471 9.92603775 -0.4375 7.375 C-0.39431641 6.66859375 -0.35113281 5.9621875 -0.30664062 5.234375 C-0.20055249 3.48981463 -0.09977111 1.74493303 0 0 Z " fill="#A6CEDD" transform="translate(102,84)"/>
<path d="M0 0 C0.33 0 0.66 0 1 0 C1.33 21.45 1.66 42.9 2 65 C2.33 65 2.66 65 3 65 C3 58.07 3 51.14 3 44 C3.99 43.505 3.99 43.505 5 43 C5.01458252 43.73114014 5.02916504 44.46228027 5.04418945 45.21557617 C5.1188291 48.54007371 5.21543801 51.86358467 5.3125 55.1875 C5.33505859 56.33798828 5.35761719 57.48847656 5.38085938 58.67382812 C5.41630859 59.78564453 5.45175781 60.89746094 5.48828125 62.04296875 C5.51446533 63.06414795 5.54064941 64.08532715 5.56762695 65.13745117 C6.06563297 68.43452658 6.97897637 70.35926287 9 73 C12.0957107 73.89207179 12.0957107 73.89207179 15 74 C14.505 74.99 14.505 74.99 14 76 C12.02 76.495 12.02 76.495 10 77 C12.97 77 15.94 77 19 77 C18 79 18 79 16.21484375 79.625 C12.56450937 80.22608422 10.03886764 80.52030099 6.66015625 78.828125 C1.30537849 74.91613546 1.30537849 74.91613546 0 71 C-0.08989374 68.71540326 -0.11757205 66.42820674 -0.11352539 64.1418457 C-0.11367142 63.44890411 -0.11381744 62.75596252 -0.1139679 62.04202271 C-0.11327163 59.75324363 -0.1054926 57.4645461 -0.09765625 55.17578125 C-0.09579106 53.58823186 -0.09436763 52.00068189 -0.09336853 50.41313171 C-0.08955134 46.2357728 -0.07972786 42.05844869 -0.06866455 37.88110352 C-0.05843328 33.61800609 -0.05386723 29.35490304 -0.04882812 25.09179688 C-0.03810489 16.72784862 -0.02103803 8.36392864 0 0 Z " fill="#93B5BF" transform="translate(108,60)"/>
<path d="M0 0 C0.33 0 0.66 0 1 0 C0.99476318 0.71655762 0.98952637 1.43311523 0.98413086 2.17138672 C0.96339333 5.40591562 0.95035016 8.64043056 0.9375 11.875 C0.92912109 13.00292969 0.92074219 14.13085938 0.91210938 15.29296875 C0.90888672 16.36933594 0.90566406 17.44570312 0.90234375 18.5546875 C0.89710693 19.54968262 0.89187012 20.54467773 0.88647461 21.56982422 C0.8360585 24.00960773 0.8360585 24.00960773 2 26 C2.01630435 27.96128513 1.96451476 29.9233288 1.87890625 31.8828125 C1.83056641 33.04941406 1.78222656 34.21601562 1.73242188 35.41796875 C1.67634766 36.64128906 1.62027344 37.86460938 1.5625 39.125 C1.51029297 40.35605469 1.45808594 41.58710937 1.40429688 42.85546875 C1.2743256 45.90388588 1.13934981 48.9519995 1 52 C0.67 52 0.34 52 0 52 C0 43.42 0 34.84 0 26 C-1.65 26 -3.3 26 -5 26 C-5.268125 26.78375 -5.53625 27.5675 -5.8125 28.375 C-7 31 -7 31 -10 33 C-12.6875 32.625 -12.6875 32.625 -15 32 C-15 30.68 -15 29.36 -15 28 C-13 26.25 -13 26.25 -11 25 C-12.32 24.67 -13.64 24.34 -15 24 C-15 22.68 -15 21.36 -15 20 C-9.85630944 18.28543648 -5.16239286 18.70940179 0 20 C0 13.4 0 6.8 0 0 Z " fill="#8BACB6" transform="translate(100,77)"/>
<path d="M0 0 C15.18 0 30.36 0 46 0 C46 0.66 46 1.32 46 2 C38.89870636 2.87743733 31.83535148 3.33024324 24.6875 3.625 C23.63626953 3.6765625 22.58503906 3.728125 21.50195312 3.78125 C14.252079 4.08425642 7.21408335 3.76788562 0 3 C0 2.01 0 1.02 0 0 Z " fill="#A5D4E5" transform="translate(82,191)"/>
<path d="M0 0 C0.495 0.33 0.99 0.66 1.5 1 C1.17 2.32 0.84 3.64 0.5 5 C-0.82 5 -2.14 5 -3.5 5 C-3.5 5.66 -3.5 6.32 -3.5 7 C-2.18 7 -0.86 7 0.5 7 C1.125 8.875 1.125 8.875 1.5 11 C0.84 11.66 0.18 12.32 -0.5 13 C-3.76091463 12.82837291 -5.26263954 12.19245443 -7.8125 10.125 C-9.5 8 -9.5 8 -9.5 5 C-10.49 4.67 -11.48 4.34 -12.5 4 C-13.1875 1.9375 -13.1875 1.9375 -13.5 0 C-8.97258828 -1.50913724 -4.43573202 -1.77429281 0 0 Z " fill="#A2C8D4" transform="translate(127.5,97)"/>
<path d="M0 0 C1.2065625 0.0309375 1.2065625 0.0309375 2.4375 0.0625 C2.1075 2.0425 1.7775 4.0225 1.4375 6.0625 C1.7675 5.7325 2.0975 5.4025 2.4375 5.0625 C4.10367115 5.02186168 5.77138095 5.019779 7.4375 5.0625 C7.7675 6.0525 8.0975 7.0425 8.4375 8.0625 C5.69601004 11.07813895 3.22405645 12.91460625 -0.921875 13.2578125 C-2.10523437 13.22300781 -2.10523437 13.22300781 -3.3125 13.1875 C-4.11171875 13.16945313 -4.9109375 13.15140625 -5.734375 13.1328125 C-6.33765625 13.10960938 -6.9409375 13.08640625 -7.5625 13.0625 C-6.5725 12.7325 -5.5825 12.4025 -4.5625 12.0625 C-4.5625 11.4025 -4.5625 10.7425 -4.5625 10.0625 C-5.5525 10.3925 -6.5425 10.7225 -7.5625 11.0625 C-7.8925 10.0725 -8.2225 9.0825 -8.5625 8.0625 C-7.5725 8.0625 -6.5825 8.0625 -5.5625 8.0625 C-5.253125 6.928125 -4.94375 5.79375 -4.625 4.625 C-3.26939655 0.07974138 -3.26939655 0.07974138 0 0 Z " fill="#A0C4D0" transform="translate(121.5625,63.9375)"/>
<path d="M0 0 C16.83 0 33.66 0 51 0 C51 1.65 51 3.3 51 5 C50.34 5.33 49.68 5.66 49 6 C48.34 5.67 47.68 5.34 47 5 C47 4.01 47 3.02 47 2 C31.82 2 16.64 2 1 2 C0.67 2.99 0.34 3.98 0 5 C-0.33 4.01 -0.66 3.02 -1 2 C-0.67 1.34 -0.34 0.68 0 0 Z " fill="#829CA3" transform="translate(81,189)"/>
<path d="M0 0 C0.86825912 0.00222061 1.73651825 0.00444122 2.63108826 0.00672913 C3.61202957 0.00680466 4.59297089 0.00688019 5.6036377 0.00695801 C6.6702916 0.01211929 7.7369455 0.01728058 8.83592224 0.02259827 C9.92211349 0.02401321 11.00830475 0.02542816 12.12741089 0.02688599 C15.61230674 0.03250403 19.09713941 0.04505959 22.58201599 0.05775452 C24.93813486 0.06276719 27.29425473 0.0673305 29.65037537 0.07142639 C35.44011063 0.08247933 41.2298088 0.09923501 47.01951599 0.12025452 C47.51451599 2.59525452 47.51451599 2.59525452 48.01951599 5.12025452 C46.69951599 4.79025452 45.37951599 4.46025452 44.01951599 4.12025452 C44.01951599 3.46025452 44.01951599 2.80025452 44.01951599 2.12025452 C28.83951599 2.12025452 13.65951599 2.12025452 -1.98048401 2.12025452 C-2.31048401 3.11025452 -2.64048401 4.10025452 -2.98048401 5.12025452 C-2.98048401 0.18097428 -2.98048401 0.18097428 0 0 Z " fill="#85A0AA" transform="translate(83.98048400878906,181.87974548339844)"/>
<path d="M0 0 C0.33 0.99 0.66 1.98 1 3 C3.01508358 3.73323796 3.01508358 3.73323796 5 4 C4.67 5.65 4.34 7.3 4 9 C0.04 9.66 -3.92 10.32 -8 11 C-8.33 12.98 -8.66 14.96 -9 17 C-9.33 17 -9.66 17 -10 17 C-10 14.36 -10 11.72 -10 9 C-10.66 9 -11.32 9 -12 9 C-12.66 10.32 -13.32 11.64 -14 13 C-13.49398 9.25545197 -12.93468107 7.40289323 -10 5 C-7.7734375 4.12109375 -7.7734375 4.12109375 -5.375 3.4375 C-3.01593777 2.79864318 -3.01593777 2.79864318 -1 2 C-0.67 1.34 -0.34 0.68 0 0 Z " fill="#8EABB7" transform="translate(81,57)"/>
<path d="M0 0 C1.28317892 3.84953676 1.06643637 6.94738135 1 11 C0.01 11 -0.98 11 -2 11 C-2.66 9.35 -3.32 7.7 -4 6 C-5.32 7.65 -6.64 9.3 -8 11 C-9.32 10.67 -10.64 10.34 -12 10 C-11.58565093 5.16592748 -9.62206046 3.10462326 -6 0 C-3 -1 -3 -1 0 0 Z " fill="#9DC0C9" transform="translate(134,80)"/>
<path d="M0 0 C1.14726563 0.01546875 2.29453125 0.0309375 3.4765625 0.046875 C6.375 0.25 6.375 0.25 8.375 1.25 C8.045 2.57 7.715 3.89 7.375 5.25 C0.94 5.745 0.94 5.745 -5.625 6.25 C-5.625 6.91 -5.625 7.57 -5.625 8.25 C-7.275 8.25 -8.925 8.25 -10.625 8.25 C-10.875 5.9375 -10.875 5.9375 -10.625 3.25 C-7.35454794 -0.12414932 -4.55424169 -0.10280455 0 0 Z " fill="#A3C8D4" transform="translate(92.625,51.75)"/>
<path d="M0 0 C0.33 0.99 0.66 1.98 1 3 C1.99 3.33 2.98 3.66 4 4 C-0.37921078 8.7545717 -0.37921078 8.7545717 -3.6875 10.0625 C-6.17259657 10.76930922 -6.17259657 10.76930922 -7 13.0625 C-7.33 13.701875 -7.66 14.34125 -8 15 C-10.625 15.75 -10.625 15.75 -13 16 C-11.86919 9.07378874 -8.5002576 6.1279161 -3 2 C-2.01 1.34 -1.02 0.68 0 0 Z " fill="#A9CBD7" transform="translate(75,43)"/>
<path d="M0 0 C1.32 0.33 2.64 0.66 4 1 C3.52412884 7.02770138 0.80277043 11.76678289 -2 17 C-3.32 16.67 -4.64 16.34 -6 16 C-5.59683075 9.68368172 -3.28767869 5.35006016 0 0 Z " fill="#A5C6D0" transform="translate(136,18)"/>
<path d="M0 0 C1.65 0.33 3.3 0.66 5 1 C4.40555729 6.15183685 0.55486658 9.53936776 -3.0625 12.9375 C-5 14 -5 14 -7.25 13.6875 C-7.8275 13.460625 -8.405 13.23375 -9 13 C-9 11.68 -9 10.36 -9 9 C-8.34 9 -7.68 9 -7 9 C-7 8.34 -7 7.68 -7 7 C-5.625 5.375 -5.625 5.375 -4 4 C-3.34 4 -2.68 4 -2 4 C-1.34 2.68 -0.68 1.36 0 0 Z " fill="#ACCDD4" transform="translate(56,141)"/>
<path d="M0 0 C2.7714638 0.26920269 4.99386387 0.92667531 7.453125 2.23828125 C7.123125 3.55828125 6.793125 4.87828125 6.453125 6.23828125 C3.99413845 6.31905088 1.53778758 6.37865268 -0.921875 6.42578125 C-1.96988281 6.46348633 -1.96988281 6.46348633 -3.0390625 6.50195312 C-5.0703125 6.53125 -5.0703125 6.53125 -8.546875 6.23828125 C-9.206875 5.24828125 -9.866875 4.25828125 -10.546875 3.23828125 C-7.44177938 -0.60757247 -4.65844407 -0.12940122 0 0 Z " fill="#C2E1ED" transform="translate(182.546875,91.76171875)"/>
<path d="M0 0 C1.98 0.495 1.98 0.495 4 1 C4 1.66 4 2.32 4 3 C4.8353125 3.3403125 4.8353125 3.3403125 5.6875 3.6875 C8.63246684 5.35896766 10.68156544 7.55276352 13 10 C12.34 11.32 11.68 12.64 11 14 C6.25236998 13.2966474 3.36699134 10.41255772 0.125 7.0625 C-1 5 -1 5 -0.6875 2.25 C-0.460625 1.5075 -0.23375 0.765 0 0 Z " fill="#9DBDCA" transform="translate(154,141)"/>
<path d="M0 0 C-0.13671875 1.82421875 -0.13671875 1.82421875 -1 4 C-3.58203125 5.51953125 -3.58203125 5.51953125 -6.8125 6.8125 C-7.87082031 7.25207031 -8.92914063 7.69164063 -10.01953125 8.14453125 C-12.96349542 8.98952228 -14.20525702 9.10300994 -17 8 C-17 6.68 -17 5.36 -17 4 C-15.11157486 3.12957757 -13.21388098 2.27924526 -11.3125 1.4375 C-10.25675781 0.96183594 -9.20101562 0.48617187 -8.11328125 -0.00390625 C-4.83366107 -1.05322011 -3.24104461 -1.00418265 0 0 Z " fill="#A5C3CD" transform="translate(184,63)"/>
<path d="M0 0 C1.65 0 3.3 0 5 0 C5 0.66 5 1.32 5 2 C5.556875 2.20625 6.11375 2.4125 6.6875 2.625 C9.92501302 4.55000774 11.68231141 7.03850902 14 10 C13.34 11.32 12.68 12.64 12 14 C8.88815884 12.57724379 6.37515156 10.87998769 3.75 8.6875 C3.04359375 8.11386719 2.3371875 7.54023437 1.609375 6.94921875 C0 5 0 5 -0.234375 2.26953125 C-0.15703125 1.52058594 -0.0796875 0.77164063 0 0 Z " fill="#94B4BF" transform="translate(47,36)"/>
<path d="M0 0 C0.33 0.99 0.66 1.98 1 3 C-2.66666667 6.66666667 -6.33333333 10.33333333 -10 14 C-10.99 13.67 -11.98 13.34 -13 13 C-13 9.64644834 -12.51528026 7.59074465 -10.29296875 5.04296875 C-4.75700102 0 -4.75700102 0 0 0 Z " fill="#9CBCC6" transform="translate(166,36)"/>
<path d="M0 0 C5.96564796 0.50771472 10.63809899 2.38592128 16 5 C16 6.32 16 7.64 16 9 C12.0942221 10.30192597 10.64806685 9.39331847 6.875 7.875 C5.79992187 7.45992188 4.72484375 7.04484375 3.6171875 6.6171875 C1 5 1 5 0.1328125 2.3203125 C0.08898437 1.55460937 0.04515625 0.78890625 0 0 Z " fill="#A2C0CC" transform="translate(167,119)"/>
<path d="M0 0 C0.99 0 1.98 0 3 0 C3 0.66 3 1.32 3 2 C3.66 2 4.32 2 5 2 C5.66 1.34 6.32 0.68 7 0 C8.32716357 2.17969233 9.63640322 4.36731621 10.9375 6.5625 C11.31068359 7.17158203 11.68386719 7.78066406 12.06835938 8.40820312 C14.56989223 12.66756987 15.600329 16.07072433 16 21 C14 19 14 19 13.75 17 C13.5025 16.34 13.255 15.68 13 15 C12.071875 14.7525 11.14375 14.505 10.1875 14.25 C6.62731096 12.85384743 6.3850229 12.44835176 4.8125 9.1875 C4.20539702 7.79294128 3.60107573 6.39716714 3 5 C2.02065076 3.32111559 1.03013277 1.64821244 0 0 Z " fill="#A2C3D2" transform="translate(149,60)"/>
<path d="M0 0 C0 1.65 0 3.3 0 5 C-9.87355719 9.62486884 -9.87355719 9.62486884 -14 10 C-14.66 9.67 -15.32 9.34 -16 9 C-15.77734375 7.13671875 -15.77734375 7.13671875 -15 5 C-13.00390625 3.76953125 -13.00390625 3.76953125 -10.5625 2.8125 C-9.75941406 2.48894531 -8.95632812 2.16539063 -8.12890625 1.83203125 C-7.42636719 1.55746094 -6.72382812 1.28289062 -6 1 C-4 0 -4 0 0 0 Z " fill="#ACCFD9" transform="translate(45,119)"/>
<path d="M0 0 C1.28132813 0.10183594 2.56265625 0.20367187 3.8828125 0.30859375 C4.87023438 0.39238281 5.85765625 0.47617188 6.875 0.5625 C7.4375 2.5 7.4375 2.5 7.875 4.5625 C6.875 5.5625 6.875 5.5625 3.27734375 5.66015625 C1.78903133 5.6534822 0.30073568 5.64152183 -1.1875 5.625 C-1.94611328 5.62048828 -2.70472656 5.61597656 -3.48632812 5.61132812 C-5.36591871 5.5995068 -7.24546899 5.58157078 -9.125 5.5625 C-9.125 3.9125 -9.125 2.2625 -9.125 0.5625 C-6.07230154 -0.96384923 -3.36654311 -0.27544444 0 0 Z " fill="#B6DCEB" transform="translate(33.125,92.4375)"/>
<path d="M0 0 C0.33 0 0.66 0 1 0 C0.99476318 0.71655762 0.98952637 1.43311523 0.98413086 2.17138672 C0.96339333 5.40591562 0.95035016 8.64043056 0.9375 11.875 C0.92912109 13.00292969 0.92074219 14.13085938 0.91210938 15.29296875 C0.90888672 16.36933594 0.90566406 17.44570312 0.90234375 18.5546875 C0.89710693 19.54968262 0.89187012 20.54467773 0.88647461 21.56982422 C0.8360585 24.00960773 0.8360585 24.00960773 2 26 C2.01630435 27.96128513 1.96451476 29.9233288 1.87890625 31.8828125 C1.83056641 33.04941406 1.78222656 34.21601562 1.73242188 35.41796875 C1.67634766 36.64128906 1.62027344 37.86460938 1.5625 39.125 C1.51029297 40.35605469 1.45808594 41.58710937 1.40429688 42.85546875 C1.2743256 45.90388588 1.13934981 48.9519995 1 52 C0.67 52 0.34 52 0 52 C0 43.42 0 34.84 0 26 C-1.98 26 -3.96 26 -6 26 C-6 25.34 -6 24.68 -6 24 C-5.34 24 -4.68 24 -4 24 C-4 23.01 -4 22.02 -4 21 C-5.65 21 -7.3 21 -9 21 C-9 20.34 -9 19.68 -9 19 C-6.03 19.33 -3.06 19.66 0 20 C0 13.4 0 6.8 0 0 Z " fill="#92ABB4" transform="translate(100,77)"/>
<path d="M0 0 C1.98 0.495 1.98 0.495 4 1 C4 6.28 4 11.56 4 17 C2.68 17.33 1.36 17.66 0 18 C-1.82116003 16.17883997 -1.1323508 13.69328236 -1.13671875 11.2734375 C-1.13285156 10.52320313 -1.12898438 9.77296875 -1.125 9 C-1.12886719 8.24976563 -1.13273437 7.49953125 -1.13671875 6.7265625 C-1.12661053 1.12661053 -1.12661053 1.12661053 0 0 Z " fill="#A1C7D3" transform="translate(105,12)"/>
<path d="M0 0 C1.859375 0.23828125 1.859375 0.23828125 4 1 C7.10122235 5.54654511 8.56310544 10.50972199 8 16 C7.01 16.33 6.02 16.66 5 17 C4.17988688 15.44148245 3.36923787 13.87798284 2.5625 12.3125 C2.11003906 11.44238281 1.65757813 10.57226562 1.19140625 9.67578125 C0.02851551 7.06404304 -0.65729129 4.83338049 -1 2 C-0.67 1.34 -0.34 0.68 0 0 Z " fill="#9FBDC6" transform="translate(74,18)"/>
<path d="M0 0 C5.54050113 0.56825653 10.03715966 2.62886517 15 5 C14.67 6.65 14.34 8.3 14 10 C8.57903298 8.64475824 3.9221313 6.63365987 -1 4 C-0.67 2.68 -0.34 1.36 0 0 Z " fill="#A8C7D3" transform="translate(30,62)"/>
<path d="M0 0 C0.99 0 1.98 0 3 0 C3.36644578 1.55966592 3.71760862 3.12292651 4.0625 4.6875 C4.25972656 5.55761719 4.45695312 6.42773438 4.66015625 7.32421875 C5.02509476 10.1975852 4.84691238 12.2366459 4 15 C1.29120665 16.35439668 -1.00933268 16.06501451 -4 16 C-4 15.34 -4 14.68 -4 14 C-3.01 14 -2.02 14 -1 14 C-1.33 11.36 -1.66 8.72 -2 6 C-1.34 6 -0.68 6 0 6 C-0.185625 5.38125 -0.37125 4.7625 -0.5625 4.125 C-1 2 -1 2 0 0 Z " fill="#9CC5D6" transform="translate(86,163)"/>
<path d="M0 0 C2.25 0.125 2.25 0.125 5 1 C9 5.97297297 9 5.97297297 9 10 C7.68 10.33 6.36 10.66 5 11 C3.68 9.35 2.36 7.7 1 6 C0.34 8.64 -0.32 11.28 -1 14 C-2.65 13.67 -4.3 13.34 -6 13 C-5.67 12.01 -5.34 11.02 -5 10 C-4.01 10.99 -3.02 11.98 -2 13 C-2 10.03 -2 7.06 -2 4 C-1.34 4 -0.68 4 0 4 C0 2.68 0 1.36 0 0 Z " fill="#9CBEC7" transform="translate(82,80)"/>
<path d="M0 0 C1.32 0.33 2.64 0.66 4 1 C4.33 2.98 4.66 4.96 5 7 C6.32 7.33 7.64 7.66 9 8 C5.125 10 5.125 10 4 10 C3.67 12.97 3.34 15.94 3 19 C1.02 19 -0.96 19 -3 19 C-1.68 18.67 -0.36 18.34 1 18 C1.17240266 14.4657454 0.95678537 11.85510389 -0.0625 8.4375 C-0.99473321 5.01931156 -1.00961072 3.33171538 0 0 Z " fill="#96B5BF" transform="translate(79,107)"/>
<path d="M0 0 C0.33 0 0.66 0 1 0 C1.18867925 9.62264151 1.18867925 9.62264151 -1 14 C-2.32 13.01 -3.64 12.02 -5 11 C-5.33 11.99 -5.66 12.98 -6 14 C-6.66 13.34 -7.32 12.68 -8 12 C-7.625 9.375 -7.625 9.375 -7 7 C-6.34 7 -5.68 7 -5 7 C-5 5.02 -5 3.04 -5 1 C-3.68 1 -2.36 1 -1 1 C-0.67 0.67 -0.34 0.34 0 0 Z " fill="#95B8C5" transform="translate(153,85)"/>
<path d="M0 0 C4.455 0.99 4.455 0.99 9 2 C9 3.65 9 5.3 9 7 C6.35261084 8.4606285 5.10551666 9 2 9 C-0.1875 7 -0.1875 7 -2 5 C-1.34 3.35 -0.68 1.7 0 0 Z " fill="#A0BDCC" transform="translate(66,107)"/>
<path d="M0 0 C1.98 0 3.96 0 6 0 C6 1.32 6 2.64 6 4 C4.20963542 4.9765625 2.41927083 5.953125 0.62890625 6.9296875 C-1.16618315 7.91410024 -1.16618315 7.91410024 -2 10 C-2.66 10 -3.32 10 -4 10 C-4.33 9.01 -4.66 8.02 -5 7 C-5 8.65 -5 10.3 -5 12 C-5.33 12 -5.66 12 -6 12 C-6 9.36 -6 6.72 -6 4 C-4.7934375 3.566875 -4.7934375 3.566875 -3.5625 3.125 C-0.8673532 2.26737432 -0.8673532 2.26737432 0 0 Z " fill="#AED6E5" transform="translate(88,113)"/>
<path d="M0 0 C0.66 0 1.32 0 2 0 C3.00496852 3.01490557 3.10335303 5.04181692 3.0625 8.1875 C3.05347656 9.08855469 3.04445312 9.98960938 3.03515625 10.91796875 C3.02355469 11.60503906 3.01195312 12.29210937 3 13 C3.66 13 4.32 13 5 13 C5 9.37 5 5.74 5 2 C5.33 2 5.66 2 6 2 C6.33 8.6 6.66 15.2 7 22 C6.34 21.67 5.68 21.34 5 21 C5 19.02 5 17.04 5 15 C4.01 15 3.02 15 2 15 C1.34 15.66 0.68 16.32 0 17 C0 11.39 0 5.78 0 0 Z " fill="#8AA7B1" transform="translate(46,87)"/>
<path d="M0 0 C2.67115607 4.67519562 2.52814482 9.22557205 2.75 14.5 C2.80542969 15.45003906 2.86085938 16.40007812 2.91796875 17.37890625 C2.96050781 18.29542969 3.00304687 19.21195313 3.046875 20.15625 C3.08651367 20.98962891 3.12615234 21.82300781 3.16699219 22.68164062 C2.98277145 25.2391847 2.28899364 26.8058071 1 29 C0.67 29 0.34 29 0 29 C0 25.37 0 21.74 0 18 C-0.66 17.67 -1.32 17.34 -2 17 C-1.67 16.34 -1.34 15.68 -1 15 C-0.76827173 12.45384991 -0.58105471 9.92603775 -0.4375 7.375 C-0.39431641 6.66859375 -0.35113281 5.9621875 -0.30664062 5.234375 C-0.20055249 3.48981463 -0.09977111 1.74493303 0 0 Z " fill="#A7D6E5" transform="translate(102,84)"/>
<path d="M0 0 C4.43379675 2.21689838 6.46636932 4.77728219 9 9 C8.34 10.32 7.68 11.64 7 13 C7 12.34 7 11.68 7 11 C6.34 11 5.68 11 5 11 C5 10.34 5 9.68 5 9 C3.68 9 2.36 9 1 9 C-0.875 7.3125 -0.875 7.3125 -2 5 C-1.1875 2.25 -1.1875 2.25 0 0 Z " fill="#ACCFDB" transform="translate(147,51)"/>
<path d="M0 0 C0 1.98 0 3.96 0 6 C-4.77573323 8.61895048 -8.84434881 7.83119431 -14 7 C-14 6.34 -14 5.68 -14 5 C-10.535 4.505 -10.535 4.505 -7 4 C-7 3.34 -7 2.68 -7 2 C-4 0 -4 0 0 0 Z " fill="#ABCEDB" transform="translate(102,131)"/>
<path d="M0 0 C5.49071618 3.34217507 5.49071618 3.34217507 7.5 5.9375 C8.1956813 8.80718538 7.29158778 10.41682443 6 13 C2.73991357 9.83047153 -0.22237877 6.60062011 -3 3 C-2.01 2.01 -1.02 1.02 0 0 Z " fill="#A2C3D2" transform="translate(146,77)"/>
<path d="M0 0 C3.96 0 7.92 0 12 0 C12.66 1.65 13.32 3.3 14 5 C14.33 5.66 14.66 6.32 15 7 C14.01 7 13.02 7 12 7 C12.66 8.65 13.32 10.3 14 12 C10.8255824 10.90537324 10.01085843 10.01822665 8.25 7.0625 C7 4 7 4 7 1 C4.69 1 2.38 1 0 1 C0 0.67 0 0.34 0 0 Z " fill="#95B7BF" transform="translate(82,194)"/>
<path d="M0 0 C0.99 1.32 1.98 2.64 3 4 C0.25 8.875 0.25 8.875 -2 10 C-4.6723621 10.13415472 -7.32250488 10.04318541 -10 10 C-9.67 9.01 -9.34 8.02 -9 7 C-8.01 7 -7.02 7 -6 7 C-6 6.34 -6 5.68 -6 5 C-5.38125 4.9175 -4.7625 4.835 -4.125 4.75 C-1.81562433 4.18741541 -1.81562433 4.18741541 -0.75 1.9375 C-0.37875 0.9784375 -0.37875 0.9784375 0 0 Z " fill="#A5CAD6" transform="translate(143,119)"/>
<path d="M0 0 C1.65 0.33 3.3 0.66 5 1 C5.33 2.65 5.66 4.3 6 6 C4.68 5.67 3.36 5.34 2 5 C2 5.66 2 6.32 2 7 C0.35 7 -1.3 7 -3 7 C-3 7.66 -3 8.32 -3 9 C-2.34 9 -1.68 9 -1 9 C-1 9.66 -1 10.32 -1 11 C-2.32 10.67 -3.64 10.34 -5 10 C-5.33 8.35 -5.66 6.7 -6 5 C-3.69 5.33 -1.38 5.66 1 6 C0.67 4.02 0.34 2.04 0 0 Z " fill="#8FAABC" transform="translate(90,64)"/>
<path d="M0 0 C0.3125 2.6875 0.3125 2.6875 0 6 C-2.3125 8.875 -2.3125 8.875 -5 11 C-5.99 11 -6.98 11 -8 11 C-8 6.24432324 -6.86935543 4.68917126 -4 1 C-1 0 -1 0 0 0 Z " fill="#A7D1DB" transform="translate(157,123)"/>
<path d="M0 0 C0.33 0 0.66 0 1 0 C1 6.6 1 13.2 1 20 C0.34 20 -0.32 20 -1 20 C-2.00496852 16.98509443 -2.10335303 14.95818308 -2.0625 11.8125 C-2.05347656 10.91144531 -2.04445312 10.01039062 -2.03515625 9.08203125 C-2.02355469 8.39496094 -2.01195312 7.70789063 -2 7 C-2.66 6.67 -3.32 6.34 -4 6 C-3.525625 5.566875 -3.05125 5.13375 -2.5625 4.6875 C-0.76313043 2.97690387 -0.76313043 2.97690387 0 0 Z " fill="#ACD6E6" transform="translate(50,80)"/>
<path d="M0 0 C0.99 1.485 0.99 1.485 2 3 C3.32 3 4.64 3 6 3 C6.99 3.66 7.98 4.32 9 5 C9.3125 8 9.3125 8 9 11 C8.34 11.66 7.68 12.32 7 13 C6.34 12.34 5.68 11.68 5 11 C4.01 12.485 4.01 12.485 3 14 C2.34 13.67 1.68 13.34 1 13 C1.66 12.01 2.32 11.02 3 10 C3.16713569 7.37468476 3.16713569 7.37468476 3 5 C2.01 4.67 1.02 4.34 0 4 C0 2.68 0 1.36 0 0 Z " fill="#98B2BC" transform="translate(138,110)"/>
<path d="M0 0 C0.99 0.66 1.98 1.32 3 2 C3.66 2 4.32 2 5 2 C5 2.66 5 3.32 5 4 C3.02 4.33 1.04 4.66 -1 5 C-0.835 5.99 -0.67 6.98 -0.5 8 C0.41290481 14.46858266 0.07071969 20.57568186 -1 27 C-1.33 27 -1.66 27 -2 27 C-2 18.42 -2 9.84 -2 1 C-1.34 0.67 -0.68 0.34 0 0 Z " fill="#A8D6E7" transform="translate(112,72)"/>
<path d="M0 0 C0.99 1.32 1.98 2.64 3 4 C2.02149805 5.02104551 1.02019573 6.0206121 0 7 C-0.33 7 -0.66 7 -1 7 C-0.98952637 7.64549805 -0.97905273 8.29099609 -0.96826172 8.95605469 C-0.92662728 11.88733002 -0.90065025 14.81854304 -0.875 17.75 C-0.85824219 18.76578125 -0.84148437 19.7815625 -0.82421875 20.828125 C-0.81777344 21.8078125 -0.81132813 22.7875 -0.8046875 23.796875 C-0.79421387 24.69760742 -0.78374023 25.59833984 -0.77294922 26.52636719 C-1.01278324 29.13926856 -1.67687936 30.75664666 -3 33 C-4.2207022 26.62522182 -3.91131144 20.52152558 -3.5625 14.0625 C-3.51029297 12.99708984 -3.45808594 11.93167969 -3.40429688 10.83398438 C-3.27546928 8.22229771 -3.14054502 5.6110779 -3 3 C-2.34 2.67 -1.68 2.34 -1 2 C-0.67 1.34 -0.34 0.68 0 0 Z " fill="#ABD8E6" transform="translate(113,97)"/>
<path d="M0 0 C0.69287109 0.00451172 1.38574219 0.00902344 2.09960938 0.01367188 C3.79561068 0.02536844 5.49156703 0.04330076 7.1875 0.0625 C7.1875 0.3925 7.1875 0.7225 7.1875 1.0625 C6.61902344 1.12308594 6.05054687 1.18367188 5.46484375 1.24609375 C0.68968963 1.76426573 -4.0617305 2.35493859 -8.8125 3.0625 C-7.1625 3.3925 -5.5125 3.7225 -3.8125 4.0625 C-5.8125 6.0625 -5.8125 6.0625 -9.4375 6.1875 C-10.55125 6.14625 -11.665 6.105 -12.8125 6.0625 C-12.8125 4.4125 -12.8125 2.7625 -12.8125 1.0625 C-8.52952469 0.00630997 -4.38264354 -0.05452092 0 0 Z " fill="#94B3BE" transform="translate(106.8125,34.9375)"/>
<path d="M0 0 C0 0.66 0 1.32 0 2 C1.65 2 3.3 2 5 2 C5 2.99 5 3.98 5 5 C4.34 5 3.68 5 3 5 C3 5.99 3 6.98 3 8 C1 7 1 7 0 4 C-0.66 4 -1.32 4 -2 4 C-2 4.66 -2 5.32 -2 6 C-3.32 5.67 -4.64 5.34 -6 5 C-6 3.68 -6 2.36 -6 1 C-3 0 -3 0 0 0 Z " fill="#A3C6D1" transform="translate(91,96)"/>
<path d="M0 0 C1.32 0 2.64 0 4 0 C4 3.63 4 7.26 4 11 C2.68 10.34 1.36 9.68 0 9 C-1.42682927 2.85365854 -1.42682927 2.85365854 0 0 Z " fill="#BBDDE7" transform="translate(130,107)"/>
<path d="M0 0 C0.33 0.66 0.66 1.32 1 2 C1.66 2.33 2.32 2.66 3 3 C-0.30994713 4.65497356 -3.99123 4.10084335 -7.625 4.0625 C-8.42679688 4.05798828 -9.22859375 4.05347656 -10.0546875 4.04882812 C-12.03649006 4.03703168 -14.01825433 4.01909605 -16 4 C-16.33 3.34 -16.66 2.68 -17 2 C-16.05125 2.020625 -15.1025 2.04125 -14.125 2.0625 C-11.09333717 2.22551826 -11.09333717 2.22551826 -9 1 C-7.46331135 0.77532169 -5.92031946 0.59203195 -4.375 0.4375 C-3.55773437 0.35371094 -2.74046875 0.26992188 -1.8984375 0.18359375 C-0.95871094 0.09271484 -0.95871094 0.09271484 0 0 Z " fill="#AAD7E3" transform="translate(114,35)"/>
<path d="M0 0 C1.0625 1.8125 1.0625 1.8125 2 4 C1.67 4.99 1.34 5.98 1 7 C0.01 7 -0.98 7 -2 7 C-2.33 7.66 -2.66 8.32 -3 9 C-4.32 8.34 -5.64 7.68 -7 7 C-7 5.68 -7 4.36 -7 3 C-4.69 2.01 -2.38 1.02 0 0 Z " fill="#A3C5CD" transform="translate(146,106)"/>
<path d="M0 0 C1.98 1.65 3.96 3.3 6 5 C5.34 6.32 4.68 7.64 4 9 C2.68 8.67 1.36 8.34 0 8 C-0.12375 7.195625 -0.2475 6.39125 -0.375 5.5625 C-0.684375 4.2940625 -0.684375 4.2940625 -1 3 C-1.66 2.67 -2.32 2.34 -3 2 C-2.01 1.34 -1.02 0.68 0 0 Z " fill="#ADC9D3" transform="translate(161,146)"/>
<path d="M0 0 C0.99 0.33 1.98 0.66 3 1 C4.28317892 4.84953676 4.06643637 7.94738135 4 12 C3.01 12 2.02 12 1 12 C0.01 8.7 -0.98 5.4 -2 2 C-1.34 1.34 -0.68 0.68 0 0 Z " fill="#AFD8E5" transform="translate(131,79)"/>
<path d="M0 0 C0 1.65 0 3.3 0 5 C-1.96466413 6.06775224 -3.96855359 7.06553465 -6 8 C-6.66 7.67 -7.32 7.34 -8 7 C-8 5.35 -8 3.7 -8 2 C-4.91190305 0.23537317 -3.76687864 0 0 0 Z " fill="#9BBDC8" transform="translate(45,119)"/>
<path d="M0 0 C0.33 0.99 0.66 1.98 1 3 C-1.13464912 5.45484649 -2.70720291 6.68134222 -6 7 C-6.66 6.34 -7.32 5.68 -8 5 C-8 4.01 -8 3.02 -8 2 C-4.77208445 -0.1519437 -3.71599191 -0.20086443 0 0 Z " fill="#9EC4CB" transform="translate(129,69)"/>
<path d="M0 0 C2.92824652 0.97608217 4.61426621 2.10786631 7 4 C1.70769231 7.07692308 1.70769231 7.07692308 -1.875 6.6875 C-2.57625 6.460625 -3.2775 6.23375 -4 6 C-3.6875 4.125 -3.6875 4.125 -3 2 C-2.01 1.34 -1.02 0.68 0 0 Z " fill="#96B7C2" transform="translate(80,40)"/>
<path d="M0 0 C1.23556641 0.01740234 1.23556641 0.01740234 2.49609375 0.03515625 C3.32238281 0.04417969 4.14867188 0.05320313 5 0.0625 C5.63808594 0.07410156 6.27617188 0.08570313 6.93359375 0.09765625 C6.60359375 1.74765625 6.27359375 3.39765625 5.93359375 5.09765625 C3.62359375 5.42765625 1.31359375 5.75765625 -1.06640625 6.09765625 C-1.06640625 4.77765625 -1.06640625 3.45765625 -1.06640625 2.09765625 C-1.72640625 1.76765625 -2.38640625 1.43765625 -3.06640625 1.09765625 C-2.06640625 0.09765625 -2.06640625 0.09765625 0 0 Z " fill="#A4C9D4" transform="translate(116.06640625,51.90234375)"/>
<path d="M0 0 C0.99 0.66 1.98 1.32 3 2 C2.67 3.32 2.34 4.64 2 6 C1.34 6 0.68 6 0 6 C0 9.96 0 13.92 0 18 C-0.33 18 -0.66 18 -1 18 C-1.04898438 17.24074219 -1.09796875 16.48148438 -1.1484375 15.69921875 C-1.22320312 14.70535156 -1.29796875 13.71148437 -1.375 12.6875 C-1.44460937 11.70136719 -1.51421875 10.71523437 -1.5859375 9.69921875 C-1.83865472 6.78471567 -1.83865472 6.78471567 -4 4 C-4.99 3.34 -5.98 2.68 -7 2 C-5.02 2 -3.04 2 -1 2 C-0.67 1.34 -0.34 0.68 0 0 Z " fill="#8DA9B3" transform="translate(101,54)"/>
<path d="M0 0 C3 3.75 3 3.75 3 6 C2.01 6 1.02 6 0 6 C0 7.98 0 9.96 0 12 C-0.66 12 -1.32 12 -2 12 C-2.66 9.03 -3.32 6.06 -4 3 C-3.34 3 -2.68 3 -2 3 C-2 2.34 -2 1.68 -2 1 C-1.34 0.67 -0.68 0.34 0 0 Z " fill="#95B9C5" transform="translate(86,157)"/>
<path d="M0 0 C1.33333333 0.66666667 2.66666667 1.33333333 4 2 C3.42647107 5.87132028 1.51295648 8.08172796 -1 11 C-2.1875 7.75 -2.1875 7.75 -3 4 C-1.625 1.5625 -1.625 1.5625 0 0 Z " fill="#9DBFCD" transform="translate(132,147)"/>
<path d="M0 0 C1.67542976 0.28604898 3.34385343 0.61781233 5 1 C4.60196439 3.88575819 4.20990931 4.82189513 1.9375 6.75 C1.298125 7.1625 0.65875 7.575 0 8 C0 7.34 0 6.68 0 6 C-0.66 6 -1.32 6 -2 6 C-1.125 1.125 -1.125 1.125 0 0 Z " fill="#A3C3CC" transform="translate(56,141)"/>
<path d="M0 0 C2.875 0.25 2.875 0.25 6 1 C7.375 3.0625 7.375 3.0625 8 5 C6.68 5 5.36 5 4 5 C3.67 5.66 3.34 6.32 3 7 C1.68 6.34 0.36 5.68 -1 5 C-0.67 3.35 -0.34 1.7 0 0 Z " fill="#94B5C3" transform="translate(123,52)"/>
<path d="M0 0 C0.33 0.99 0.66 1.98 1 3 C1.99 3.33 2.98 3.66 4 4 C-0.625 8.875 -0.625 8.875 -4 10 C-3.835 9.236875 -3.67 8.47375 -3.5 7.6875 C-2.90854604 4.96403764 -2.90854604 4.96403764 -3 2 C-2.01 1.34 -1.02 0.68 0 0 Z " fill="#99B9C3" transform="translate(75,43)"/>
<path d="M0 0 C0.66 1.32 1.32 2.64 2 4 C2.66 3.01 3.32 2.02 4 1 C5.4783226 3.95664519 5.06032783 6.74229737 5 10 C3.35 10 1.7 10 0 10 C0 6.7 0 3.4 0 0 Z " fill="#9BC1D0" transform="translate(123,168)"/>
<path d="M0 0 C4.875 4.625 4.875 4.625 6 8 C4.68 7.67 3.36 7.34 2 7 C2 6.34 2 5.68 2 5 C1.34 5 0.68 5 0 5 C-0.33 5.99 -0.66 6.98 -1 8 C-1.99 6.35 -2.98 4.7 -4 3 C-3.34 3 -2.68 3 -2 3 C-2 2.34 -2 1.68 -2 1 C-1.34 0.67 -0.68 0.34 0 0 Z " fill="#98BDC7" transform="translate(59,124)"/>
<path d="M0 0 C0.66 0.33 1.32 0.66 2 1 C0.68 4.96 -0.64 8.92 -2 13 C-2.66 12.67 -3.32 12.34 -4 12 C-3.67 10.35 -3.34 8.7 -3 7 C-3.99 7 -4.98 7 -6 7 C-5.34 5.68 -4.68 4.36 -4 3 C-3.01 3.33 -2.02 3.66 -1 4 C-0.67 2.68 -0.34 1.36 0 0 Z " fill="#96B8C3" transform="translate(56,68)"/>
<path d="M0 0 C0 1.32 0 2.64 0 4 C-3.63 4.33 -7.26 4.66 -11 5 C-11 4.34 -11 3.68 -11 3 C-10.34 3 -9.68 3 -9 3 C-9 2.34 -9 1.68 -9 1 C-6.04335481 -0.4783226 -3.25770263 -0.06032783 0 0 Z " fill="#A8D3E3" transform="translate(84,61)"/>
<path d="M0 0 C1.32 0.66 2.64 1.32 4 2 C3.67 3.98 3.34 5.96 3 8 C-3.42857143 3.85714286 -3.42857143 3.85714286 -6 1 C-4.7934375 1.0309375 -4.7934375 1.0309375 -3.5625 1.0625 C-1.06645115 1.29633621 -1.06645115 1.29633621 0 0 Z " fill="#9BC1CA" transform="translate(143,48)"/>
<path d="M0 0 C2.97 0 5.94 0 9 0 C9.33 0.99 9.66 1.98 10 3 C9.67 3.66 9.34 4.32 9 5 C6.69 4.67 4.38 4.34 2 4 C2 3.01 2 2.02 2 1 C1.34 0.67 0.68 0.34 0 0 Z " fill="#A6C7D3" transform="translate(119,97)"/>
<path d="M0 0 C1.65 0.33 3.3 0.66 5 1 C4.375 2.9375 4.375 2.9375 3 5 C-0.125 5.75 -0.125 5.75 -3 6 C-3 5.34 -3 4.68 -3 4 C-3.66 4 -4.32 4 -5 4 C-5 3.34 -5 2.68 -5 2 C-3.35 2 -1.7 2 0 2 C0 1.34 0 0.68 0 0 Z " fill="#ABD6E6" transform="translate(92,69)"/>
<path d="M0 0 C0.66 0.33 1.32 0.66 2 1 C1.1875 3.4375 1.1875 3.4375 0 6 C-3.47325181 7.1577506 -6.36067448 7.06866652 -10 7 C-10.33 6.34 -10.66 5.68 -11 5 C-7.37 4.01 -3.74 3.02 0 2 C0 1.34 0 0.68 0 0 Z " fill="#A6D4E3" transform="translate(128,131)"/>
<path d="M0 0 C0.66 0.33 1.32 0.66 2 1 C2.6328125 3.06640625 2.6328125 3.06640625 3.125 5.5625 C3.29257813 6.38878906 3.46015625 7.21507813 3.6328125 8.06640625 C3.75398437 8.70449219 3.87515625 9.34257813 4 10 C2.68 10.99 1.36 11.98 0 13 C-1.0161692 8.37078475 -0.83796731 4.65537393 0 0 Z " fill="#96BAC8" transform="translate(148,99)"/>
<path d="M0 0 C0.99 0.66 1.98 1.32 3 2 C3 2.99 3 3.98 3 5 C-0.3 5 -3.6 5 -7 5 C-7 4.01 -7 3.02 -7 2 C-3.6875 0.875 -3.6875 0.875 0 0 Z " fill="#ABD3E6" transform="translate(108,204)"/>
<path d="M0 0 C2.39105598 2.14926381 3.63278854 3.99036913 4.75 7 C5.01296875 7.680625 5.2759375 8.36125 5.546875 9.0625 C6 11 6 11 5 14 C4.79375 13.05125 4.5875 12.1025 4.375 11.125 C3.92125 10.09375 3.4675 9.0625 3 8 C1.02111039 7.27306096 -0.97954558 6.60183749 -3 6 C-3.875 3.875 -3.875 3.875 -4 2 C-3.01 2.33 -2.02 2.66 -1 3 C-1 3.66 -1 4.32 -1 5 C-0.34 5.33 0.32 5.66 1 6 C0.67 4.02 0.34 2.04 0 0 Z " fill="#96B4BE" transform="translate(159,67)"/>
<path d="M0 0 C1.32 0.33 2.64 0.66 4 1 C4.05399736 2.45792884 4.09279177 3.91642712 4.125 5.375 C4.14820312 6.18710938 4.17140625 6.99921875 4.1953125 7.8359375 C4 10 4 10 2 12 C0.26043342 10.26043342 0.62809614 7.8063378 0.4375 5.4375 C0.35371094 4.42558594 0.26992187 3.41367187 0.18359375 2.37109375 C0.12300781 1.58863281 0.06242187 0.80617187 0 0 Z " fill="#ACD3E4" transform="translate(108,59)"/>
<path d="M0 0 C0.78375 0.04125 1.5675 0.0825 2.375 0.125 C1.86896008 2.29374252 1.37516187 4.12467627 0.375 6.125 C-1.6875 6.75 -1.6875 6.75 -3.625 7.125 C-4.25 4.75 -4.25 4.75 -4.625 2.125 C-2.625 0.125 -2.625 0.125 0 0 Z " fill="#9DBECA" transform="translate(121.625,63.875)"/>
<path d="M0 0 C0.78375 0.04125 1.5675 0.0825 2.375 0.125 C2.375 1.115 2.375 2.105 2.375 3.125 C1.715 3.125 1.055 3.125 0.375 3.125 C0.045 3.785 -0.285 4.445 -0.625 5.125 C-1.285 5.125 -1.945 5.125 -2.625 5.125 C-2.955 5.785 -3.285 6.445 -3.625 7.125 C-4.615 7.455 -5.605 7.785 -6.625 8.125 C-4.21323529 0.20063025 -4.21323529 0.20063025 0 0 Z " fill="#ACD5DF" transform="translate(161.625,37.875)"/>
<path d="M0 0 C6.4 -0.49230769 6.4 -0.49230769 9.4375 2 C10.2109375 2.99 10.2109375 2.99 11 4 C8.5054485 5.24727575 7.60628506 4.88934597 4.9375 4.25 C4.22464844 4.09015625 3.51179687 3.9303125 2.77734375 3.765625 C2.19082031 3.51296875 1.60429687 3.2603125 1 3 C0.67 2.01 0.34 1.02 0 0 Z " fill="#A9D4DF" transform="translate(169,121)"/>
<path d="M0 0 C0.33 0 0.66 0 1 0 C1 4.29 1 8.58 1 13 C0.01 13.495 0.01 13.495 -1 14 C-2.41933513 9.74199462 -2.72651677 5.77088462 -1 1.5625 C-0.67 1.046875 -0.34 0.53125 0 0 Z " fill="#99C3D0" transform="translate(104,109)"/>
<path d="M0 0 C1.8871875 0.0309375 1.8871875 0.0309375 3.8125 0.0625 C1.6739515 2.2010485 0.67974686 2.48905063 -2.1875 3.0625 C-2.1875 5.0425 -2.1875 7.0225 -2.1875 9.0625 C-2.5175 8.0725 -2.8475 7.0825 -3.1875 6.0625 C-4.1775 5.7325 -5.1675 5.4025 -6.1875 5.0625 C-6.875 3 -6.875 3 -7.1875 1.0625 C-4.43671116 0.14557039 -2.82801087 -0.04636083 0 0 Z " fill="#95B7C4" transform="translate(121.1875,95.9375)"/>
<path d="M0 0 C1.31625194 2.63250388 0.74813658 3.80179056 0.0625 6.625 C-0.13214844 7.44226563 -0.32679687 8.25953125 -0.52734375 9.1015625 C-0.76130859 10.04128906 -0.76130859 10.04128906 -1 11 C-1.66 11 -2.32 11 -3 11 C-4.1875 8.8125 -4.1875 8.8125 -5 6 C-3.68235793 3.10118744 -2.87874663 1.43937332 0 0 Z " fill="#B1D8E5" transform="translate(71,65)"/>
<path d="M0 0 C1.65 0.33 3.3 0.66 5 1 C5 1.99 5 2.98 5 4 C4.01 4.33 3.02 4.66 2 5 C1.67 5.99 1.34 6.98 1 8 C0.01 8.33 -0.98 8.66 -2 9 C-3 6 -3 6 -1.5625 2.8125 C-1.046875 1.884375 -0.53125 0.95625 0 0 Z " fill="#A7CDD6" transform="translate(54,64)"/>
<path d="M0 0 C2.64 0.66 5.28 1.32 8 2 C7.01 3.32 6.02 4.64 5 6 C5.66 6.33 6.32 6.66 7 7 C3.37 6.34 -0.26 5.68 -4 5 C-4 4.67 -4 4.34 -4 4 C-2.02 4 -0.04 4 2 4 C1.34 2.68 0.68 1.36 0 0 Z " fill="#90ABB6" transform="translate(122,37)"/>
<path d="M0 0 C2.50037734 2.17424117 3.43628586 3.73045798 4 7 C1.75 7.25 1.75 7.25 -1 7 C-3.3125 5 -3.3125 5 -5 3 C-4.67 2.34 -4.34 1.68 -4 1 C-2.02 1.495 -2.02 1.495 0 2 C0 1.34 0 0.68 0 0 Z " fill="#9ABBC6" transform="translate(79,146)"/>
<path d="M0 0 C0.66 0 1.32 0 2 0 C2.33 0.66 2.66 1.32 3 2 C5.52733235 2.65555119 5.52733235 2.65555119 8 3 C7.01 4.32 6.02 5.64 5 7 C1.125 6.125 1.125 6.125 0 5 C-0.04063832 3.33382885 -0.042721 1.66611905 0 0 Z " fill="#ADD3DE" transform="translate(59,129)"/>
<path d="M0 0 C0.33 1.32 0.66 2.64 1 4 C0.34 4 -0.32 4 -1 4 C-0.67 4.99 -0.34 5.98 0 7 C0.66 7.33 1.32 7.66 2 8 C1.34 9.65 0.68 11.3 0 13 C-0.66 12.01 -1.32 11.02 -2 10 C-2.66 10 -3.32 10 -4 10 C-2.99806563 6.20696275 -2.18975773 3.28463659 0 0 Z " fill="#92B0BE" transform="translate(158,114)"/>
<path d="M0 0 C2.475 0.99 2.475 0.99 5 2 C5 2.33 5 2.66 5 3 C8.3 3.33 11.6 3.66 15 4 C15 4.33 15 4.66 15 5 C12.70890403 5.08075665 10.41700733 5.13907731 8.125 5.1875 C6.21074219 5.23970703 6.21074219 5.23970703 4.2578125 5.29296875 C3.18273437 5.19628906 2.10765625 5.09960938 1 5 C0.34 4.01 -0.32 3.02 -1 2 C-0.67 1.34 -0.34 0.68 0 0 Z " fill="#97B8C3" transform="translate(173,93)"/>
<path d="M0 0 C0.99 0.33 1.98 0.66 3 1 C4.1875 3.5625 4.1875 3.5625 5 6 C3.68 6.99 2.36 7.98 1 9 C-1.09230769 4.56923077 -1.09230769 4.56923077 -0.625 1.6875 C-0.41875 1.130625 -0.2125 0.57375 0 0 Z " fill="#B2D4E4" transform="translate(124,164)"/>
<path d="M0 0 C1.50559539 1.96382007 2.89131683 3.78263366 4 6 C6.02463255 6.65213292 6.02463255 6.65213292 8 7 C5.42786866 8.61949011 4.32330841 9.04408751 1.25 8.625 C0.13625 8.315625 0.13625 8.315625 -1 8 C-1.04241723 5.66705225 -1.04092937 3.33297433 -1 1 C-0.67 0.67 -0.34 0.34 0 0 Z " fill="#ADD5E1" transform="translate(82,126)"/>
<path d="M0 0 C1.32 0 2.64 0 4 0 C4 1.32 4 2.64 4 4 C0.04 5.98 0.04 5.98 -4 8 C-3.67 6.68 -3.34 5.36 -3 4 C-2.34 3.67 -1.68 3.34 -1 3 C-0.67 2.01 -0.34 1.02 0 0 Z " fill="#96B8C5" transform="translate(90,113)"/>
<path d="M0 0 C1.98 0.495 1.98 0.495 4 1 C4.12375 1.94875 4.2475 2.8975 4.375 3.875 C4.71687177 7.08667191 4.71687177 7.08667191 7 9 C5.35 9 3.7 9 2 9 C2.33 8.01 2.66 7.02 3 6 C2.34 6 1.68 6 1 6 C1 5.34 1 4.68 1 4 C0.34 3.67 -0.32 3.34 -1 3 C-0.67 2.01 -0.34 1.02 0 0 Z " fill="#B0D5E2" transform="translate(47,101)"/>
<path d="M0 0 C0.66 0 1.32 0 2 0 C2.66 2.31 3.32 4.62 4 7 C2.35 7.33 0.7 7.66 -1 8 C-1.33 6.02 -1.66 4.04 -2 2 C-1.34 2 -0.68 2 0 2 C0 1.34 0 0.68 0 0 Z " fill="#AED0DD" transform="translate(143,68)"/>
<path d="M0 0 C3.93846154 4.30769231 3.93846154 4.30769231 4.25 7.8125 C4.1675 8.534375 4.085 9.25625 4 10 C2 7 2 7 2 4 C1.34 4 0.68 4 0 4 C0 4.66 0 5.32 0 6 C-0.66 6 -1.32 6 -2 6 C-3.625 4 -3.625 4 -5 2 C-3.35 1.34 -1.7 0.68 0 0 Z " fill="#8EB0B6" transform="translate(143,64)"/>
<path d="M0 0 C1 3 1 3 1 5 C1.66 4.67 2.32 4.34 3 4 C2.34 5.32 1.68 6.64 1 8 C0.01 8 -0.98 8 -2 8 C-2.66 6.68 -3.32 5.36 -4 4 C-2.68 2.68 -1.36 1.36 0 0 Z " fill="#91B6C0" transform="translate(63,53)"/>
<path d="M0 0 C3.96 0 7.92 0 12 0 C11.67 1.32 11.34 2.64 11 4 C10.34 3.67 9.68 3.34 9 3 C8.67 3.99 8.34 4.98 8 6 C7.67 4.35 7.34 2.7 7 1 C4.69 1 2.38 1 0 1 C0 0.67 0 0.34 0 0 Z " fill="#849DA4" transform="translate(82,194)"/>
<path d="M0 0 C1.32 0 2.64 0 4 0 C3.125 6.75 3.125 6.75 2 9 C1.01 8.67 0.02 8.34 -1 8 C-1 7.01 -1 6.02 -1 5 C-0.34 5 0.32 5 1 5 C0.67 3.35 0.34 1.7 0 0 Z " fill="#ABD4E0" transform="translate(158,113)"/>
<path d="M0 0 C0.66 0.33 1.32 0.66 2 1 C2.875 4.3125 2.875 4.3125 3 8 C1.0625 10.4375 1.0625 10.4375 -1 12 C-1.66 10.68 -2.32 9.36 -3 8 C-2.34 7.67 -1.68 7.34 -1 7 C-0.59270772 4.67843403 -0.25561323 2.3431213 0 0 Z " fill="#9BB8C2" transform="translate(64,99)"/>
<path d="M0 0 C1.65 0.33 3.3 0.66 5 1 C4.67 2.32 4.34 3.64 4 5 C-0.95 5 -5.9 5 -11 5 C-11 4.67 -11 4.34 -11 4 C-6.71 4 -2.42 4 2 4 C2 3.34 2 2.68 2 2 C1.34 1.34 0.68 0.68 0 0 Z " fill="#91ACB4" transform="translate(36,93)"/>
<path d="M0 0 C2.64 0 5.28 0 8 0 C8.33 0.99 8.66 1.98 9 3 C8.34 3.66 7.68 4.32 7 5 C3.34683329 3.75023244 2.21934164 3.32901247 0 0 Z " fill="#B0D2DE" transform="translate(181,93)"/>
<path d="M0 0 C0.99 0.495 0.99 0.495 2 1 C2 1.66 2 2.32 2 3 C2.99 3.33 3.98 3.66 5 4 C4.67 5.32 4.34 6.64 4 8 C2.68 7.67 1.36 7.34 0 7 C0 4.69 0 2.38 0 0 Z " fill="#99BBC5" transform="translate(104,22)"/>
<path d="M0 0 C2.0625 1.75 2.0625 1.75 4 4 C3.78842197 6.39788436 3.07207819 7.85584361 2 10 C1.34 10 0.68 10 0 10 C0 6.7 0 3.4 0 0 Z " fill="#B0DBE8" transform="translate(102,120)"/>
<path d="M0 0 C1.61949011 2.57213134 2.04408751 3.67669159 1.625 6.75 C1.41875 7.4925 1.2125 8.235 1 9 C-2.875 8.125 -2.875 8.125 -4 7 C-4.04063832 5.33382885 -4.042721 3.66611905 -4 2 C-3.67 3.32 -3.34 4.64 -3 6 C-2.01 6 -1.02 6 0 6 C0 4.02 0 2.04 0 0 Z " fill="#93ADB4" transform="translate(135,85)"/>
<path d="M0 0 C0.99 0.66 1.98 1.32 3 2 C3 3.66666667 3 5.33333333 3 7 C1.35 7 -0.3 7 -2 7 C-2.125 4.625 -2.125 4.625 -2 2 C-1.34 1.34 -0.68 0.68 0 0 Z " fill="#B4D5E4" transform="translate(84,53)"/>
<path d="M0 0 C1.5 1.125 1.5 1.125 3 3 C3.1875 6.1875 3.1875 6.1875 3 9 C2.34 9 1.68 9 1 9 C0.01 7.02 -0.98 5.04 -2 3 C-1.34 2.01 -0.68 1.02 0 0 Z " fill="#AACCD5" transform="translate(78,26)"/>
<path d="M0 0 C2 2 2 2 2 5 C-3.625 6.125 -3.625 6.125 -7 5 C-7 4.34 -7 3.68 -7 3 C-3.535 2.505 -3.535 2.505 0 2 C0 1.34 0 0.68 0 0 Z " fill="#ABD7E3" transform="translate(95,133)"/>
<path d="M0 0 C2.31 0.33 4.62 0.66 7 1 C5.02 1.99 5.02 1.99 3 3 C3 3.66 3 4.32 3 5 C4.32 5.33 5.64 5.66 7 6 C6.01 6.495 6.01 6.495 5 7 C2.375 5.8125 2.375 5.8125 0 4 C0 2.68 0 1.36 0 0 Z " fill="#96AFB9" transform="translate(167,119)"/>
<path d="M0 0 C-0.33 1.65 -0.66 3.3 -1 5 C-2.32 5.33 -3.64 5.66 -5 6 C-5.33 5.01 -5.66 4.02 -6 3 C-3.375 0 -3.375 0 0 0 Z " fill="#ADD6E9" transform="translate(73,110)"/>
<path d="M0 0 C0.33 0.66 0.66 1.32 1 2 C1.66 2.33 2.32 2.66 3 3 C3 3.99 3 4.98 3 6 C1.68 6 0.36 6 -1 6 C-1.66 4.68 -2.32 3.36 -3 2 C-2.01 1.34 -1.02 0.68 0 0 Z " fill="#B5DDEB" transform="translate(119,68)"/>
<path d="M0 0 C0.99 0.33 1.98 0.66 3 1 C2.67 2.65 2.34 4.3 2 6 C0.68 6 -0.64 6 -2 6 C-2 4.35 -2 2.7 -2 1 C-1.34 0.67 -0.68 0.34 0 0 Z " fill="#B4D3DE" transform="translate(88,170)"/>
<path d="M0 0 C0.99 0 1.98 0 3 0 C3.6875 1.8125 3.6875 1.8125 4 4 C2.5625 5.75 2.5625 5.75 1 7 C0.01 6.67 -0.98 6.34 -2 6 C-1.34 6 -0.68 6 0 6 C-0.2784375 5.071875 -0.2784375 5.071875 -0.5625 4.125 C-1 2 -1 2 0 0 Z " fill="#B1D6E7" transform="translate(86,163)"/>
<path d="M0 0 C0 3 0 3 -1.53125 4.60546875 C-2.1809375 5.12753906 -2.830625 5.64960938 -3.5 6.1875 C-4.1496875 6.71730469 -4.799375 7.24710938 -5.46875 7.79296875 C-5.9740625 8.19128906 -6.479375 8.58960938 -7 9 C-7.33 8.01 -7.66 7.02 -8 6 C-7.34 6 -6.68 6 -6 6 C-6 5.34 -6 4.68 -6 4 C-5.34 4 -4.68 4 -4 4 C-3.67 3.34 -3.34 2.68 -3 2 C-2.01 1.34 -1.02 0.68 0 0 Z " fill="#96BDC8" transform="translate(153,132)"/>
<path d="M0 0 C1.32 0.66 2.64 1.32 4 2 C3.34 3.32 2.68 4.64 2 6 C-1.875 4.25 -1.875 4.25 -3 2 C-2.01 2 -1.02 2 0 2 C0 1.34 0 0.68 0 0 Z " fill="#92B6C4" transform="translate(57,44)"/>
<path d="M0 0 C0.33 0.66 0.66 1.32 1 2 C1.66 2 2.32 2 3 2 C3 2.66 3 3.32 3 4 C4.32 4.33 5.64 4.66 7 5 C5.768606 7.46278801 4.21935077 8.42497687 2 10 C0.68373308 6.38026598 0 3.90432869 0 0 Z " fill="#90B0BD" transform="translate(47,105)"/>
<path d="M0 0 C0.99 0 1.98 0 3 0 C3.33 4.95 3.66 9.9 4 15 C3.67 15 3.34 15 3 15 C2.49564306 13.0636296 1.99666126 11.12585854 1.5 9.1875 C1.2215625 8.10855469 0.943125 7.02960938 0.65625 5.91796875 C0 3 0 3 0 0 Z " fill="#8AACB4" transform="translate(158,75)"/>
<path d="M0 0 C1.65 0 3.3 0 5 0 C5 0.66 5 1.32 5 2 C4.34 2 3.68 2 3 2 C3 2.66 3 3.32 3 4 C3.66 4 4.32 4 5 4 C5 4.66 5 5.32 5 6 C3.68 5.67 2.36 5.34 1 5 C0.67 3.35 0.34 1.7 0 0 Z " fill="#A1C0C9" transform="translate(84,69)"/>
<path d="M0 0 C2 0 2 0 3.5625 1.125 C5.53214642 3.69410403 5.79595261 5.80325755 6 9 C5.34 9.66 4.68 10.32 4 11 C2.68 7.37 1.36 3.74 0 0 Z " fill="#95BFCB" transform="translate(50,116)"/>
<path d="M0 0 C0 0.99 0 1.98 0 3 C-0.99 3.495 -0.99 3.495 -2 4 C-1.67 5.32 -1.34 6.64 -1 8 C-2.32 7.67 -3.64 7.34 -5 7 C-5 5.68 -5 4.36 -5 3 C-2.5 1.25 -2.5 1.25 0 0 Z " fill="#90A8AF" transform="translate(90,102)"/>
<path d="M0 0 C0.33 0 0.66 0 1 0 C1 3.63 1 7.26 1 11 C0.34 11 -0.32 11 -1 11 C-2.26264601 6.70700357 -1.62950412 4.12168689 0 0 Z " fill="#A1CDD9" transform="translate(50,89)"/>
<path d="M0 0 C4.455 0.99 4.455 0.99 9 2 C5.375 5 5.375 5 2 5 C1.34 3.35 0.68 1.7 0 0 Z " fill="#95BCC8" transform="translate(171,65)"/>
<path d="M0 0 C1.9375 0.375 1.9375 0.375 4 1 C4.33 1.66 4.66 2.32 5 3 C4.34 3 3.68 3 3 3 C3 3.66 3 4.32 3 5 C1.68 4.67 0.36 4.34 -1 4 C-0.67 2.68 -0.34 1.36 0 0 Z " fill="#B4D5E1" transform="translate(54,41)"/>
<path d="M0 0 C1.65 0 3.3 0 5 0 C5 0.66 5 1.32 5 2 C5.66 2.33 6.32 2.66 7 3 C2.25 4.125 2.25 4.125 0 3 C0 2.01 0 1.02 0 0 Z " fill="#B1CDD6" transform="translate(47,36)"/>
<path d="M0 0 C2.97 0.495 2.97 0.495 6 1 C5.34 2.32 4.68 3.64 4 5 C2.68 4.34 1.36 3.68 0 3 C0 2.01 0 1.02 0 0 Z " fill="#ABD6E4" transform="translate(139,110)"/>
<path d="M0 0 C0.66 0.33 1.32 0.66 2 1 C1.690625 1.598125 1.38125 2.19625 1.0625 2.8125 C-0.10209704 5.08956772 -0.10209704 5.08956772 -1 8 C-1.66 7.34 -2.32 6.68 -3 6 C-2.75 3.4375 -2.75 3.4375 -2 1 C-1.34 0.67 -0.68 0.34 0 0 Z " fill="#A0BBC8" transform="translate(148,91)"/>
<path d="M0 0 C0 2.31 0 4.62 0 7 C-0.99 7 -1.98 7 -3 7 C-3.33 5.02 -3.66 3.04 -4 1 C-1 0 -1 0 0 0 Z " fill="#A5D5DF" transform="translate(135,84)"/>
<path d="M0 0 C2.0625 0.4375 2.0625 0.4375 4 1 C4 2.98 4 4.96 4 7 C3.01 6.67 2.02 6.34 1 6 C-0.1875 3.4375 -0.1875 3.4375 -1 1 C-0.67 0.67 -0.34 0.34 0 0 Z " fill="#A4C7D4" transform="translate(101,58)"/>
<path d="M0 0 C1.65 0 3.3 0 5 0 C4.79375 0.78375 4.5875 1.5675 4.375 2.375 C4.25125 3.24125 4.1275 4.1075 4 5 C4.66 5.66 5.32 6.32 6 7 C4.68 7 3.36 7 2 7 C2 5.35 2 3.7 2 2 C1.34 2 0.68 2 0 2 C0 1.34 0 0.68 0 0 Z " fill="#AED9E7" transform="translate(127,57)"/>
<path d="M0 0 C2.33944736 0.28730055 4.6739143 0.61936779 7 1 C7 1.33 7 1.66 7 2 C5.02 2 3.04 2 1 2 C0.67 3.32 0.34 4.64 0 6 C-0.38218767 4.34385343 -0.71395102 2.67542976 -1 1 C-0.67 0.67 -0.34 0.34 0 0 Z " fill="#8CA0A9" transform="translate(123,193)"/>
<path d="M0 0 C1.65 0.33 3.3 0.66 5 1 C4.01 2.485 4.01 2.485 3 4 C0.36 3.67 -2.28 3.34 -5 3 C-5 2.67 -5 2.34 -5 2 C-3.35 2 -1.7 2 0 2 C0 1.34 0 0.68 0 0 Z " fill="#AFCFD8" transform="translate(128,176)"/>
<path d="M0 0 C1.32 0 2.64 0 4 0 C4 3.3 4 6.6 4 10 C3.67 10 3.34 10 3 10 C3 7.69 3 5.38 3 3 C2.01 3 1.02 3 0 3 C0 2.01 0 1.02 0 0 Z " fill="#A5BFC5" transform="translate(130,107)"/>
<path d="M0 0 C0.99 0 1.98 0 3 0 C1.25 5.75 1.25 5.75 -1 8 C-1 7.34 -1 6.68 -1 6 C-1.66 5.67 -2.32 5.34 -3 5 C-2.34 5 -1.68 5 -1 5 C-0.67 3.35 -0.34 1.7 0 0 Z " fill="#B4DAE4" transform="translate(164,85)"/>
<path d="M0 0 C2 2 2 2 2.25 5.4375 C2 9 2 9 0 12 C-1.16063604 7.74433453 -0.76173392 4.3164922 0 0 Z " fill="#A1CED9" transform="translate(103,76)"/>
<path d="M0 0 C1.32 1.65 2.64 3.3 4 5 C1 6 1 6 -1.1875 5.0625 C-1.785625 4.711875 -2.38375 4.36125 -3 4 C-2.67 3.01 -2.34 2.02 -2 1 C-1.34 0.67 -0.68 0.34 0 0 Z " fill="#AED6E2" transform="translate(146,77)"/>
<path d="M0 0 C0.66 0 1.32 0 2 0 C2 0.66 2 1.32 2 2 C2.99 2.33 3.98 2.66 5 3 C2.625 4.5625 2.625 4.5625 0 6 C-0.66 5.67 -1.32 5.34 -2 5 C-1.34 3.35 -0.68 1.7 0 0 Z " fill="#B3D8E6" transform="translate(64,53)"/>
<path d="M0 0 C0.33 0.99 0.66 1.98 1 3 C1.99 3.33 2.98 3.66 4 4 C4 5.65 4 7.3 4 9 C2 8 2 8 1 5 C0.34 4.67 -0.32 4.34 -1 4 C-0.67 2.68 -0.34 1.36 0 0 Z " fill="#94B8C6" transform="translate(125,160)"/>
<path d="M0 0 C1.32 0 2.64 0 4 0 C3.67 1.98 3.34 3.96 3 6 C2.01 5.34 1.02 4.68 0 4 C0 2.68 0 1.36 0 0 Z " fill="#AAD2DF" transform="translate(69,140)"/>
<path d="M0 0 C0.6875 1.8125 0.6875 1.8125 1 4 C-0.4375 5.75 -0.4375 5.75 -2 7 C-2.33 6.01 -2.66 5.02 -3 4 C-3.66 4 -4.32 4 -5 4 C-5 3.34 -5 2.68 -5 2 C-3.35 2 -1.7 2 0 2 C0 1.34 0 0.68 0 0 Z " fill="#A1BECB" transform="translate(104,128)"/>
<path d="M0 0 C0 1.32 0 2.64 0 4 C-1.98 4 -3.96 4 -6 4 C-5.67 3.01 -5.34 2.02 -5 1 C-2 0 -2 0 0 0 Z " fill="#A9D6E5" transform="translate(139,125)"/>
<path d="M0 0 C1.9451 2.91765 2.45276317 4.62537285 3 8 C2.01 8.33 1.02 8.66 0 9 C0 6.03 0 3.06 0 0 Z " fill="#A9D4E4" transform="translate(61,98)"/>
<path d="M0 0 C0.66 0 1.32 0 2 0 C2 0.66 2 1.32 2 2 C4.31 2.33 6.62 2.66 9 3 C9 3.33 9 3.66 9 4 C4.545 4.495 4.545 4.495 0 5 C0 3.35 0 1.7 0 0 Z " fill="#ADD0DB" transform="translate(24,93)"/>
<path d="M0 0 C0.33 0.99 0.66 1.98 1 3 C1.99 3.33 2.98 3.66 4 4 C2.68 5.32 1.36 6.64 0 8 C-0.98120464 4.94736336 -0.98120464 3.05263664 0 0 Z " fill="#AED0DA" transform="translate(75,43)"/>
<path d="M0 0 C0.66 0 1.32 0 2 0 C2 0.99 2 1.98 2 3 C1.34 3 0.68 3 0 3 C-0.33 4.32 -0.66 5.64 -1 7 C-1.99 6.67 -2.98 6.34 -4 6 C-2.7260411 3.96166576 -1.38938077 1.96147874 0 0 Z " fill="#9CC1CD" transform="translate(120,194)"/>
<path d="M0 0 C0.99 0.33 1.98 0.66 3 1 C3 2.98 3 4.96 3 7 C2.67 6.01 2.34 5.02 2 4 C1.01 4.33 0.02 4.66 -1 5 C-0.67 3.35 -0.34 1.7 0 0 Z " fill="#ACD0DA" transform="translate(134,145)"/>
<path d="M0 0 C0 0.66 0 1.32 0 2 C0.66 2 1.32 2 2 2 C2 2.66 2 3.32 2 4 C-0.31 4.33 -2.62 4.66 -5 5 C-5 3 -5 3 -3.625 1.375 C-2 0 -2 0 0 0 Z " fill="#ADD4E0" transform="translate(54,145)"/>
<path d="M0 0 C0.99 0.495 0.99 0.495 2 1 C2 1.66 2 2.32 2 3 C3.32 3 4.64 3 6 3 C6.33 4.32 6.66 5.64 7 7 C6.01 7.495 6.01 7.495 5 8 C4.67 6.68 4.34 5.36 4 4 C3.01 4 2.02 4 1 4 C0.67 2.68 0.34 1.36 0 0 Z " fill="#97B2BB" transform="translate(122,101)"/>
<path d="M0 0 C1.2065625 0.0309375 1.2065625 0.0309375 2.4375 0.0625 C1.1175 1.7125 -0.2025 3.3625 -1.5625 5.0625 C-2.2225 3.7425 -2.8825 2.4225 -3.5625 1.0625 C-2.5625 0.0625 -2.5625 0.0625 0 0 Z " fill="#ADD5E6" transform="translate(90.5625,104.9375)"/>
<path d="M0 0 C0.33 0.66 0.66 1.32 1 2 C3.02463255 2.65213292 3.02463255 2.65213292 5 3 C4.01 4.485 4.01 4.485 3 6 C2.34 6 1.68 6 1 6 C1 5.34 1 4.68 1 4 C0.34 3.67 -0.32 3.34 -1 3 C-0.67 2.01 -0.34 1.02 0 0 Z " fill="#9CBCCA" transform="translate(134,79)"/>
<path d="M0 0 C1.8125 0.8125 1.8125 0.8125 2.8125 2.8125 C-0.1575 2.8125 -3.1275 2.8125 -6.1875 2.8125 C-2.77144161 -0.23755214 -2.77144161 -0.23755214 0 0 Z " fill="#B6D6E0" transform="translate(98.1875,74.1875)"/>
<path d="M0 0 C1.98 0.495 1.98 0.495 4 1 C3.34 2.32 2.68 3.64 2 5 C1.01 4.67 0.02 4.34 -1 4 C-0.67 2.68 -0.34 1.36 0 0 Z " fill="#91ADB2" transform="translate(30,62)"/>
<path d="M0 0 C0.82638376 2.89234315 1 4.88742431 1 8 C0.01 7.67 -0.98 7.34 -2 7 C-1.125 1.125 -1.125 1.125 0 0 Z " fill="#8FAAC1" transform="translate(155,42)"/>
<path d="M0 0 C2.31 0.33 4.62 0.66 7 1 C6.01 2.32 5.02 3.64 4 5 C4 4.34 4 3.68 4 3 C2.68 3 1.36 3 0 3 C0 2.01 0 1.02 0 0 Z " fill="#AED3E3" transform="translate(137,46)"/>
</svg>
